<?xml version="1.0" standalone="no"?>
<!DOCTYPE svg PUBLIC "-//W3C//DTD SVG 20010904//EN"
 "http://www.w3.org/TR/2001/REC-SVG-20010904/DTD/svg10.dtd">
<svg version="1.0" xmlns="http://www.w3.org/2000/svg"
 width="220.000000pt" height="42.000000pt" viewBox="0 0 220.000000 42.000000"
 preserveAspectRatio="xMidYMid meet">

<g transform="translate(0.000000,42.000000) scale(0.100000,-0.100000)"
fill="#000000" stroke="none">
<path d="M208 407 c-17 -13 -212 -346 -206 -352 2 -2 48 75 103 170 55 96 105
176 111 179 6 2 15 1 21 -2 6 -4 56 -87 113 -185 67 -116 99 -182 93 -188 -6
-6 -94 -9 -225 -7 -119 2 -214 0 -211 -5 2 -4 100 -7 217 -7 176 0 216 3 226
15 10 12 -6 47 -91 195 -57 100 -111 185 -120 190 -10 6 -22 5 -31 -3z"/>
<path d="M271 263 c-24 -5 -167 -88 -176 -103 -3 -5 1 -20 10 -34 13 -19 23
-24 48 -21 18 2 33 4 34 4 1 1 -2 12 -7 26 -5 14 -7 25 -4 25 3 0 10 -14 16
-30 8 -25 13 -28 24 -19 11 9 14 6 14 -19 0 -39 4 -41 63 -35 37 5 47 9 47 24
0 14 -7 19 -29 19 -17 0 -33 5 -36 10 -3 6 -1 10 5 10 7 0 9 7 6 17 -4 10 3
26 20 44 22 23 24 30 15 48 -7 12 -16 21 -22 21 -6 0 -7 5 -4 10 3 6 5 9 3 9
-2 -1 -14 -4 -27 -6z m17 -19 c-17 -17 -114 -72 -118 -67 -3 3 0 7 5 10 6 2
30 17 55 33 40 25 73 40 58 24z m-141 -81 c-14 -3 -17 -11 -13 -26 5 -21 5
-21 -9 -3 -16 21 -5 37 25 35 10 -1 9 -3 -3 -6z m100 -90 c-3 -10 -5 -4 -5 12
0 17 2 24 5 18 2 -7 2 -21 0 -30z"/>
</g>
</svg>
