<svg id="svg" version="1.1" xmlns="http://www.w3.org/2000/svg" xmlns:xlink="http://www.w3.org/1999/xlink" width="400" height="76.36363636363636" viewBox="0, 0, 400,76.36363636363636"><g id="svgg"><path id="path0" d="M138.958 22.922 C 138.523 23.242,138.167 23.578,138.167 23.669 C 138.167 24.318,138.713 27.272,138.868 27.458 C 139.498 28.218,140.502 28.218,141.132 27.458 C 141.346 27.200,141.887 23.881,141.766 23.566 C 141.664 23.299,140.250 22.332,139.970 22.337 C 139.849 22.340,139.394 22.603,138.958 22.922 M110.506 24.658 C 110.306 24.939,109.960 25.617,109.738 26.164 L 109.333 27.160 109.342 45.872 C 109.352 66.579,109.368 67.002,110.150 67.701 L 110.672 68.167 120.006 68.167 L 129.340 68.167 130.005 67.727 L 130.670 67.287 130.377 66.834 C 130.215 66.586,129.882 66.146,129.636 65.858 L 129.188 65.333 123.779 65.333 C 115.461 65.333,114.300 64.875,113.168 61.149 C 112.843 60.078,112.833 59.586,112.831 43.565 L 112.829 27.083 112.182 25.916 C 111.234 24.207,110.969 24.008,110.506 24.658 M236.917 24.881 C 234.785 26.196,234.508 26.413,234.337 26.900 C 234.111 27.541,234.110 62.643,234.336 64.833 C 234.600 67.397,234.500 67.223,235.966 67.681 C 237.242 68.081,237.295 68.083,244.583 68.081 C 252.974 68.078,253.340 68.032,254.473 66.841 C 254.865 66.430,255.442 66.071,256.083 65.838 C 257.703 65.251,258.872 64.862,259.583 64.673 C 260.408 64.453,261.035 63.912,261.483 63.033 C 261.851 62.311,262.393 61.853,263.353 61.453 C 264.112 61.137,264.705 60.365,265.173 59.083 C 265.448 58.333,265.778 57.852,266.494 57.160 C 268.554 55.170,269.630 48.122,268.935 41.167 C 268.454 36.354,267.987 34.770,266.674 33.500 C 265.997 32.845,265.636 32.329,265.408 31.694 C 264.984 30.506,264.196 29.624,262.979 28.976 C 262.312 28.620,261.860 28.241,261.629 27.845 C 260.928 26.640,258.873 25.792,255.750 25.421 C 255.292 25.366,254.204 25.216,253.333 25.087 C 250.182 24.619,248.925 24.527,247.667 24.673 C 245.679 24.905,241.694 24.863,240.833 24.602 C 238.966 24.036,238.197 24.091,236.917 24.881 M250.167 28.076 C 255.219 28.514,256.887 29.023,258.187 30.524 C 258.667 31.078,259.442 31.746,259.908 32.010 C 261.230 32.756,261.748 33.407,262.416 35.167 C 262.748 36.037,263.305 37.275,263.656 37.917 C 265.904 42.028,265.884 50.146,263.617 53.255 C 263.415 53.533,263.033 54.321,262.768 55.005 C 261.747 57.652,261.546 57.967,260.415 58.705 C 259.669 59.193,259.186 59.671,258.752 60.352 C 257.952 61.607,257.806 61.691,254.551 62.753 C 253.028 63.250,251.623 63.806,251.430 63.987 C 250.787 64.591,249.776 64.872,247.417 65.100 C 241.465 65.676,240.720 65.397,239.531 62.142 L 239.083 60.917 239.037 45.819 L 238.992 30.721 239.461 29.822 C 239.732 29.303,240.233 28.693,240.645 28.378 L 241.359 27.833 244.388 27.836 C 246.054 27.837,248.654 27.945,250.167 28.076 M139.329 37.109 C 139.102 37.260,138.710 37.574,138.458 37.807 L 138.000 38.229 138.008 50.823 C 138.019 67.210,138.065 67.655,139.796 68.106 C 140.286 68.234,141.464 67.474,141.574 66.958 C 141.906 65.402,142.000 61.806,142.000 50.691 L 142.000 38.229 141.542 37.807 C 140.888 37.205,140.300 36.833,140.000 36.833 C 139.857 36.833,139.555 36.957,139.329 37.109 M150.167 37.461 L 149.513 38.115 149.990 39.932 C 150.499 41.869,150.801 42.667,151.026 42.667 C 151.645 42.667,152.594 45.015,153.173 47.978 C 153.716 50.762,154.162 51.922,155.066 52.910 C 155.605 53.498,156.153 54.783,156.384 56.000 C 157.124 59.904,157.793 61.951,158.501 62.474 C 159.125 62.936,159.888 64.425,160.272 65.932 C 160.805 68.026,161.466 68.431,163.347 67.818 C 165.383 67.155,165.996 66.392,166.577 63.805 C 167.776 58.462,167.816 58.355,168.775 57.990 C 169.356 57.769,169.745 56.772,170.338 53.981 C 171.159 50.113,171.704 48.667,172.446 48.382 C 172.861 48.223,173.596 46.412,173.989 44.583 C 174.688 41.320,175.066 40.341,175.994 39.386 C 177.393 37.945,177.097 37.577,174.404 37.406 L 172.559 37.290 172.216 37.725 C 171.975 38.032,171.716 38.986,171.341 40.955 C 170.596 44.872,170.172 46.096,169.423 46.497 C 169.199 46.616,168.839 47.126,168.597 47.667 C 168.199 48.552,168.052 49.191,167.500 52.417 C 167.075 54.899,166.982 55.275,166.664 55.797 C 166.484 56.094,166.127 56.467,165.872 56.627 C 165.616 56.786,164.637 57.758,163.696 58.786 C 161.620 61.056,161.802 60.943,161.194 60.335 C 160.535 59.676,160.264 58.804,159.666 55.416 C 159.083 52.104,158.645 50.676,157.981 49.920 C 157.008 48.812,156.469 47.088,155.664 42.516 C 155.230 40.051,154.097 38.258,152.480 37.474 C 150.942 36.730,150.898 36.730,150.167 37.461 M192.250 36.989 C 190.425 37.139,189.286 37.649,188.664 38.597 C 188.423 38.964,188.041 39.293,187.750 39.383 C 187.205 39.552,184.890 41.724,184.736 42.211 C 184.683 42.377,184.365 42.687,184.028 42.901 C 181.554 44.473,180.791 56.973,182.915 61.163 C 183.586 62.487,186.852 65.664,187.924 66.036 C 188.456 66.221,188.865 66.496,189.072 66.810 C 190.033 68.262,199.574 68.812,202.042 67.558 C 202.836 67.154,202.451 65.003,201.625 65.232 C 198.811 66.012,192.906 65.315,191.749 64.067 C 191.543 63.844,191.022 63.475,190.592 63.246 C 189.404 62.615,188.554 61.865,187.964 60.930 C 187.671 60.464,187.149 59.757,186.804 59.358 C 185.536 57.889,185.227 56.323,185.977 55.158 C 187.175 53.294,187.091 53.308,197.357 53.216 C 207.002 53.130,206.016 53.370,206.835 50.910 C 207.947 47.575,206.725 41.420,204.840 40.855 C 203.953 40.589,203.075 39.804,202.586 38.838 C 202.071 37.823,202.007 37.782,200.250 37.330 C 198.593 36.904,195.106 36.756,192.250 36.989 M286.893 36.997 C 285.008 37.136,283.571 37.748,283.300 38.525 C 283.139 38.987,282.435 39.500,281.962 39.500 C 281.695 39.500,279.421 41.796,279.277 42.212 C 279.221 42.374,278.920 42.657,278.608 42.841 C 277.746 43.350,277.074 44.761,276.757 46.734 C 276.611 47.638,276.453 48.441,276.405 48.518 C 275.781 49.528,276.574 59.287,277.426 61.088 C 277.997 62.296,281.206 65.545,282.119 65.842 C 282.929 66.104,283.620 66.591,283.746 66.986 C 284.069 68.004,289.380 68.522,294.167 68.003 C 296.700 67.729,297.172 67.514,297.050 66.695 C 296.855 65.389,296.695 65.240,295.579 65.333 C 290.927 65.723,287.678 65.308,286.430 64.165 C 286.056 63.823,285.421 63.377,285.018 63.173 C 284.067 62.692,282.790 61.490,282.249 60.567 C 282.014 60.165,281.631 59.647,281.400 59.415 C 280.161 58.176,279.794 56.386,280.531 55.180 C 281.691 53.283,282.377 53.169,292.690 53.168 C 301.432 53.166,300.561 53.400,301.393 50.833 L 301.960 49.083 301.746 47.000 C 301.338 43.017,300.678 41.437,299.116 40.707 C 298.018 40.193,297.319 39.485,296.998 38.565 C 296.522 37.201,292.519 36.579,286.893 36.997 M323.224 36.999 C 319.172 37.425,319.423 39.262,323.588 39.663 C 325.889 39.884,326.784 40.226,327.466 41.144 C 327.714 41.477,328.453 42.275,329.108 42.917 C 331.139 44.905,331.018 44.108,331.144 56.364 C 331.249 66.621,331.257 66.819,331.600 67.280 C 332.277 68.192,332.732 68.312,333.630 67.817 L 334.417 67.384 334.691 65.567 C 334.912 64.103,334.969 62.300,334.983 56.288 L 335.000 48.827 335.405 47.831 C 335.627 47.284,335.951 46.629,336.125 46.376 C 336.299 46.123,336.645 45.279,336.895 44.500 C 337.146 43.721,337.572 42.789,337.842 42.429 C 338.649 41.354,338.435 41.192,335.417 40.589 C 332.104 39.927,331.698 39.738,330.909 38.488 C 330.019 37.078,327.367 36.564,323.224 36.999 M343.583 36.935 C 339.211 37.555,338.644 37.914,339.606 39.457 C 339.832 39.820,339.894 39.827,341.800 39.725 C 346.206 39.488,347.852 40.119,349.040 42.500 C 350.406 45.234,350.366 44.881,350.516 55.583 C 350.691 68.131,350.502 67.161,352.887 67.703 L 354.506 68.070 354.918 67.657 C 355.292 67.284,355.348 67.035,355.516 65.029 C 355.741 62.342,355.616 46.629,355.361 45.498 C 355.026 44.012,354.484 42.893,353.414 41.477 C 352.815 40.685,352.046 39.524,351.703 38.898 L 351.081 37.759 349.582 37.364 C 348.126 36.980,344.897 36.749,343.583 36.935 M374.337 37.010 C 372.456 37.178,371.301 37.667,370.904 38.463 C 370.581 39.111,370.135 39.491,369.575 39.596 C 368.964 39.710,366.743 41.498,366.582 42.004 C 366.527 42.178,366.190 42.551,365.833 42.834 C 362.695 45.319,362.680 59.924,365.813 62.055 C 366.195 62.314,366.653 62.813,366.831 63.162 C 367.216 63.917,368.744 65.306,369.333 65.437 C 370.668 65.734,371.667 66.428,371.667 67.058 C 371.667 67.980,377.356 68.496,381.805 67.979 C 383.825 67.744,384.215 67.554,384.479 66.670 C 384.728 65.841,385.340 65.420,386.527 65.262 C 387.518 65.131,388.903 63.988,389.087 63.150 C 389.232 62.490,389.897 61.729,390.448 61.590 C 392.274 61.132,393.353 53.914,392.522 47.713 C 391.962 43.544,391.635 43.060,386.185 38.344 C 384.701 37.059,379.873 36.516,374.337 37.010 M312.478 37.392 C 311.686 37.589,310.918 37.853,310.769 37.979 C 310.416 38.279,310.376 61.975,310.723 65.123 C 310.970 67.364,310.871 67.245,312.887 67.703 L 314.506 68.070 314.915 67.660 C 315.521 67.054,315.664 64.813,315.665 55.912 C 315.667 45.122,315.865 44.053,318.148 42.497 C 319.140 41.821,319.185 41.618,318.480 41.022 C 317.458 40.160,316.968 39.591,316.572 38.811 C 315.727 37.142,314.788 36.817,312.478 37.392 M198.139 39.921 C 199.159 40.029,199.805 40.464,200.253 41.344 C 200.466 41.762,200.953 42.362,201.335 42.677 C 203.496 44.461,203.749 44.988,203.179 46.512 C 202.608 48.038,201.949 48.796,201.081 48.926 C 200.676 48.987,200.253 49.146,200.141 49.281 C 199.399 50.175,198.562 50.333,194.567 50.333 L 190.790 50.333 189.846 49.689 C 189.327 49.334,188.718 48.988,188.493 48.919 C 187.608 48.650,187.043 48.028,186.502 46.730 C 185.880 45.236,185.940 44.919,186.966 44.271 C 187.650 43.840,189.500 41.839,189.500 41.531 C 189.500 40.060,193.110 39.387,198.139 39.921 M292.755 39.929 C 293.739 40.047,294.432 40.544,294.900 41.467 C 295.283 42.223,295.663 42.616,297.016 43.656 C 297.976 44.394,298.208 45.213,297.778 46.352 C 297.187 47.922,296.488 48.778,295.687 48.913 C 295.315 48.976,294.839 49.161,294.630 49.324 C 293.404 50.281,293.115 50.333,289.048 50.333 L 285.250 50.332 284.372 49.666 C 283.889 49.300,283.417 49.000,283.323 49.000 C 282.397 49.000,281.398 47.837,280.751 46.004 C 280.505 45.306,280.758 44.599,281.318 44.422 C 281.843 44.255,283.917 41.954,284.092 41.344 C 284.486 39.970,288.141 39.373,292.755 39.929 M382.042 40.087 C 383.541 40.391,383.963 40.619,384.571 41.450 C 384.853 41.834,385.683 42.873,386.417 43.759 C 388.198 45.909,388.133 45.808,388.619 47.197 C 389.848 50.709,389.331 57.379,387.686 59.236 C 387.354 59.611,386.936 60.205,386.757 60.558 C 386.231 61.589,385.263 62.569,384.218 63.126 C 383.684 63.411,383.070 63.882,382.855 64.172 C 381.525 65.971,374.959 65.904,373.763 64.080 C 373.615 63.853,373.043 63.441,372.492 63.162 C 371.243 62.532,370.279 61.672,369.710 60.681 C 369.469 60.260,369.026 59.639,368.726 59.299 C 366.511 56.790,366.451 47.695,368.634 45.406 C 368.891 45.137,369.446 44.467,369.866 43.917 C 370.286 43.367,370.834 42.729,371.085 42.500 C 371.335 42.271,371.723 41.796,371.948 41.444 C 372.946 39.879,377.797 39.227,382.042 40.087 M204.375 63.298 C 203.292 63.562,203.175 63.661,203.568 63.987 C 204.151 64.471,205.442 64.476,205.727 63.994 C 206.184 63.220,205.707 62.974,204.375 63.298 M298.917 63.297 C 297.718 63.596,297.702 63.607,298.021 63.926 C 298.530 64.435,299.957 64.506,300.264 64.038 C 300.753 63.292,300.187 62.980,298.917 63.297 " stroke="none" fill="#eef8fb" fill-rule="evenodd"></path><path id="path1" d="M40.917 2.833 C 40.550 2.905,39.812 3.014,39.277 3.075 C 37.367 3.294,36.585 3.909,35.895 5.738 C 35.192 7.603,34.720 8.437,33.984 9.117 C 33.152 9.886,32.606 10.812,32.346 11.897 C 32.042 13.162,31.567 13.944,30.405 15.089 C 29.228 16.249,29.135 16.423,28.574 18.532 C 28.088 20.358,27.226 21.667,26.508 21.667 C 26.233 21.667,25.652 22.810,25.096 24.449 C 24.284 26.841,24.204 26.982,23.007 28.167 C 22.116 29.048,21.852 29.436,21.591 30.250 C 21.031 31.999,20.369 33.233,19.514 34.120 C 18.564 35.105,18.101 35.929,17.760 37.239 C 17.352 38.806,16.171 40.500,15.486 40.500 C 15.098 40.500,13.841 44.069,13.835 45.189 C 13.834 45.339,13.533 45.714,13.167 46.022 C 12.800 46.331,12.212 46.825,11.859 47.121 C 11.326 47.569,11.140 47.905,10.755 49.121 C 10.032 51.401,9.380 52.613,8.594 53.140 C 7.862 53.630,7.078 54.875,6.898 55.833 C 6.708 56.837,5.836 58.419,5.054 59.177 C 4.165 60.038,3.631 61.032,3.178 62.665 C 2.603 64.742,2.111 65.333,0.958 65.333 L 0.000 65.333 0.000 68.750 L 0.000 72.167 0.866 72.167 C 1.497 72.167,2.208 72.358,3.491 72.875 L 5.250 73.583 39.833 73.637 C 79.606 73.700,78.310 73.742,79.790 72.343 C 81.718 70.521,80.872 63.830,78.498 62.123 C 77.811 61.629,76.979 60.170,76.680 58.933 C 76.403 57.789,76.119 57.301,75.164 56.330 C 74.240 55.392,73.734 54.489,73.166 52.761 C 72.643 51.171,72.292 50.635,71.273 49.865 C 70.588 49.348,70.335 49.025,70.120 48.393 C 69.968 47.948,69.623 46.929,69.354 46.130 C 68.802 44.497,68.355 43.772,67.681 43.424 C 66.852 42.995,66.337 42.100,65.914 40.354 C 65.477 38.550,65.071 37.807,64.118 37.072 C 62.782 36.040,62.662 35.851,62.211 34.083 C 61.767 32.339,61.115 31.393,60.000 30.870 C 59.014 30.409,58.555 29.597,58.398 28.040 C 58.237 26.453,57.539 25.181,56.470 24.528 C 55.798 24.118,55.689 23.884,54.835 21.048 C 54.307 19.292,53.824 18.510,53.011 18.089 C 52.339 17.741,51.677 16.668,51.346 15.389 C 50.947 13.844,50.268 12.566,49.466 11.848 C 48.744 11.202,47.984 9.854,47.670 8.662 C 47.358 7.484,46.747 6.579,45.942 6.107 C 45.521 5.860,45.099 5.445,44.949 5.131 C 44.585 4.369,43.558 3.415,42.667 3.013 C 41.847 2.643,41.877 2.646,40.917 2.833 M49.700 29.187 C 50.899 29.441,51.694 29.870,52.202 30.535 C 52.624 31.088,52.640 31.093,54.939 31.368 C 58.148 31.753,58.085 31.708,58.339 33.803 C 58.425 34.507,58.680 35.796,58.907 36.667 L 59.321 38.250 58.392 40.140 C 57.624 41.702,57.287 42.193,56.444 42.973 C 55.884 43.492,55.086 44.288,54.671 44.743 C 54.256 45.197,53.417 46.060,52.806 46.659 C 52.195 47.259,51.503 48.052,51.267 48.420 L 50.840 49.090 51.107 50.837 C 51.431 52.950,51.439 52.640,51.016 54.235 C 50.183 57.377,50.863 57.921,55.938 58.171 C 61.247 58.433,61.639 58.722,61.659 62.391 C 61.674 65.090,61.204 65.333,55.615 65.508 C 49.572 65.698,46.942 66.091,46.162 66.922 C 45.591 67.529,45.227 67.457,45.087 66.708 C 45.023 66.365,44.715 65.531,44.404 64.855 C 43.904 63.773,43.824 63.407,43.732 61.772 L 43.627 59.917 42.705 58.970 C 41.706 57.944,41.733 57.955,39.264 57.510 C 36.594 57.029,35.529 56.347,34.836 54.673 C 34.721 54.395,34.579 54.167,34.521 54.168 C 34.430 54.168,33.402 55.516,33.017 56.138 C 32.942 56.260,32.441 56.570,31.904 56.826 L 30.928 57.291 30.084 57.000 C 29.619 56.840,28.799 56.508,28.261 56.262 L 27.283 55.815 26.683 56.398 C 24.743 58.283,23.048 58.190,21.665 56.124 C 21.343 55.643,20.842 55.131,20.551 54.985 C 19.049 54.231,18.428 53.426,18.085 51.786 C 17.961 51.192,17.666 50.325,17.430 49.860 L 17.001 49.013 17.471 48.215 C 17.730 47.776,18.123 46.938,18.346 46.353 C 18.856 45.011,19.419 44.546,21.019 44.142 C 22.572 43.750,23.474 43.132,23.949 42.133 C 24.487 41.003,25.456 40.365,28.083 39.410 C 28.564 39.235,29.270 38.772,29.756 38.313 C 30.889 37.241,32.265 36.439,33.895 35.898 C 35.086 35.503,35.373 35.324,36.264 34.418 C 37.076 33.593,37.539 33.281,38.597 32.850 C 39.323 32.554,40.373 32.123,40.932 31.892 C 41.490 31.661,42.307 31.138,42.746 30.728 C 44.056 29.508,44.654 29.274,46.750 29.159 C 47.758 29.103,48.636 29.045,48.700 29.029 C 48.764 29.013,49.214 29.084,49.700 29.187 M41.175 37.991 C 40.982 38.114,41.022 38.184,41.379 38.346 C 41.734 38.508,41.876 38.505,42.086 38.331 C 42.541 37.954,41.719 37.647,41.175 37.991 M34.160 41.592 C 33.781 42.048,34.342 42.439,34.989 42.171 C 35.580 41.926,35.631 41.748,35.178 41.506 C 34.726 41.264,34.409 41.291,34.160 41.592 M27.032 45.603 C 27.180 45.751,27.384 45.822,27.484 45.760 C 27.815 45.555,27.675 45.333,27.214 45.333 C 26.797 45.333,26.783 45.355,27.032 45.603 M23.421 48.819 C 23.305 49.185,23.473 50.000,23.665 50.000 C 23.951 50.000,24.216 49.011,24.000 48.750 C 23.721 48.414,23.543 48.435,23.421 48.819 M30.741 48.848 C 30.679 48.948,30.713 49.113,30.815 49.215 C 30.951 49.351,31.000 49.303,31.000 49.033 C 31.000 48.631,30.913 48.569,30.741 48.848 " stroke="none" fill="#f0c304" fill-rule="evenodd"></path><path id="path2" d="M0.000 30.500 L 0.000 61.000 0.885 61.000 C 2.223 61.000,2.632 60.484,3.662 57.500 C 4.372 55.443,4.524 55.162,5.507 54.075 C 6.033 53.495,6.723 52.384,7.412 51.009 C 8.040 49.756,8.813 48.492,9.257 47.992 C 10.048 47.101,10.336 46.564,11.084 44.583 C 11.608 43.197,12.201 42.130,12.889 41.336 C 13.165 41.017,13.681 40.117,14.036 39.336 C 15.085 37.025,15.186 36.859,16.213 35.782 C 17.231 34.712,17.676 33.899,18.330 31.915 C 18.787 30.529,19.127 30.008,20.257 28.969 C 21.131 28.166,21.293 27.877,22.166 25.559 C 22.447 24.813,22.919 23.884,23.214 23.495 C 24.482 21.822,24.868 21.175,25.350 19.917 C 26.022 18.159,26.720 16.930,27.604 15.944 C 28.279 15.191,28.706 14.417,29.685 12.170 C 29.904 11.667,30.496 10.799,31.000 10.240 C 31.766 9.390,32.019 8.937,32.540 7.486 C 33.378 5.150,33.639 4.708,34.685 3.847 C 36.179 2.619,36.500 2.111,36.500 0.977 L 36.500 0.000 18.250 0.000 L 0.000 0.000 0.000 30.500 M45.500 0.860 C 45.500 1.593,45.593 1.845,46.128 2.568 C 46.941 3.666,47.537 4.594,47.961 5.420 C 48.148 5.785,48.533 6.308,48.817 6.583 C 49.675 7.415,50.309 8.534,50.855 10.183 C 51.554 12.296,51.852 12.839,52.905 13.926 C 53.770 14.820,54.200 15.534,55.053 17.500 C 55.272 18.004,55.766 18.792,56.152 19.250 C 56.840 20.068,58.167 22.544,58.167 23.012 C 58.167 23.517,59.161 25.315,59.898 26.145 C 60.362 26.668,61.081 27.851,61.701 29.113 C 62.327 30.387,63.032 31.546,63.497 32.064 C 64.466 33.143,64.646 33.444,65.329 35.115 C 65.635 35.866,66.174 36.841,66.526 37.282 C 67.785 38.859,68.495 40.053,69.099 41.613 C 69.674 43.097,69.977 43.612,71.261 45.296 C 71.543 45.665,72.131 46.874,72.570 47.983 C 73.255 49.717,73.476 50.098,74.148 50.708 C 75.299 51.752,75.750 52.434,76.246 53.882 C 76.958 55.959,77.273 56.557,78.205 57.605 C 78.688 58.149,79.246 58.966,79.445 59.421 C 80.460 61.744,80.860 62.475,81.462 63.108 C 82.703 64.409,83.229 66.025,83.300 68.750 L 83.361 71.083 82.836 71.806 C 82.547 72.203,82.081 72.653,81.800 72.806 C 81.520 72.959,80.850 73.371,80.312 73.722 L 79.333 74.361 79.333 75.347 L 79.333 76.333 239.667 76.333 L 400.000 76.333 400.000 38.167 L 400.000 0.000 222.750 0.000 L 45.500 0.000 45.500 0.860 M141.755 20.849 C 142.782 21.234,144.770 22.938,144.929 23.571 C 144.979 23.771,144.901 24.669,144.757 25.567 C 144.055 29.931,139.524 31.487,136.567 28.380 C 135.454 27.212,135.419 27.116,135.067 24.362 L 134.954 23.475 136.107 22.346 C 137.927 20.565,139.723 20.089,141.755 20.849 M112.538 21.704 C 113.504 22.113,114.485 23.149,115.145 24.458 C 116.204 26.555,116.167 25.847,116.167 43.781 L 116.167 60.097 117.191 60.882 L 118.216 61.667 123.825 61.667 L 129.435 61.667 130.314 62.105 C 131.183 62.538,132.355 63.779,132.588 64.513 C 132.858 65.365,133.976 63.483,134.501 61.293 C 134.812 59.994,134.831 59.302,134.832 49.020 C 134.833 36.674,134.716 37.718,136.242 36.448 C 138.894 34.240,142.742 34.769,145.474 37.716 L 145.864 38.137 145.564 39.444 C 145.294 40.622,145.256 42.043,145.174 53.921 C 145.072 68.785,145.228 67.201,143.730 68.549 C 141.797 70.287,138.027 70.429,136.569 68.818 C 136.075 68.272,132.867 68.349,132.330 68.920 C 131.363 69.950,130.792 70.000,120.107 69.999 C 107.470 69.998,107.688 70.067,107.225 65.925 C 106.970 63.645,106.908 27.572,107.158 26.762 C 107.244 26.480,107.427 25.623,107.564 24.857 C 108.096 21.883,110.046 20.647,112.538 21.704 M253.827 21.568 C 255.807 21.985,256.675 22.335,257.406 23.008 C 258.074 23.623,258.367 23.743,261.250 24.581 C 262.096 24.827,262.442 25.060,263.500 26.093 C 264.188 26.765,265.087 27.565,265.500 27.871 C 266.050 28.279,266.410 28.752,266.850 29.644 C 267.320 30.596,267.599 30.949,268.134 31.268 C 269.193 31.900,269.738 33.194,270.163 36.083 C 270.686 39.649,270.811 40.134,271.399 40.905 C 271.827 41.465,272.024 42.017,272.392 43.676 C 272.905 45.993,273.185 46.596,273.963 47.050 L 274.497 47.362 274.679 46.890 C 274.780 46.629,275.039 45.565,275.256 44.525 C 275.777 42.030,276.417 40.662,277.351 40.049 C 278.095 39.560,279.357 38.337,280.322 37.168 C 281.734 35.458,283.429 35.083,289.750 35.083 C 297.085 35.083,298.817 35.585,299.560 37.926 C 299.620 38.116,300.063 38.458,300.568 38.706 C 301.869 39.344,302.215 39.903,302.966 42.586 C 303.330 43.886,303.805 45.190,304.040 45.536 C 306.068 48.521,305.012 53.319,302.000 54.799 L 301.083 55.250 293.083 55.335 C 284.738 55.425,284.716 55.426,283.348 56.159 C 283.017 56.336,283.018 56.345,283.421 56.939 C 283.645 57.270,283.949 57.962,284.095 58.478 C 284.702 60.619,284.908 60.806,287.167 61.269 C 289.656 61.779,292.124 61.753,296.300 61.171 C 299.773 60.688,300.027 60.673,300.620 60.921 C 303.299 62.040,303.275 65.001,300.563 67.739 C 298.484 69.840,297.775 70.000,290.602 69.999 C 283.547 69.998,282.079 69.761,280.794 68.415 C 279.242 66.789,278.076 65.670,277.932 65.668 C 277.849 65.667,277.532 65.477,277.228 65.244 C 276.183 64.448,275.795 63.487,274.905 59.500 C 274.711 58.631,274.480 58.084,274.149 57.706 C 273.398 56.848,273.229 56.378,272.936 54.333 C 272.636 52.233,272.121 50.917,271.368 50.325 L 270.924 49.975 270.715 50.779 C 270.601 51.222,270.353 52.687,270.165 54.035 C 269.661 57.648,269.371 58.327,267.938 59.243 C 267.218 59.704,267.024 59.933,266.850 60.527 C 266.481 61.784,265.866 62.650,264.906 63.264 C 264.411 63.581,263.712 64.237,263.353 64.723 C 262.541 65.823,262.176 66.063,260.489 66.607 C 259.747 66.846,259.053 67.157,258.945 67.298 C 256.998 69.847,255.807 70.054,243.500 69.972 C 233.212 69.904,233.359 69.931,232.275 67.917 L 231.917 67.250 231.862 47.529 C 231.805 26.933,231.820 26.371,232.510 23.941 C 232.712 23.226,233.834 21.909,234.390 21.731 C 236.320 21.116,251.092 20.992,253.827 21.568 M241.375 30.366 L 241.000 30.771 241.000 45.443 L 241.000 60.114 241.391 60.849 L 241.782 61.583 244.683 61.549 C 248.401 61.505,251.898 61.110,254.381 60.454 L 256.346 59.935 256.682 59.176 C 257.151 58.114,257.916 57.367,259.087 56.827 L 260.091 56.364 260.564 54.724 C 262.332 48.584,262.360 42.325,260.645 36.673 C 260.382 35.806,260.167 34.968,260.167 34.811 C 260.167 34.629,259.942 34.453,259.542 34.324 C 258.107 33.859,256.952 33.123,255.176 31.541 C 253.724 30.247,253.198 30.150,247.083 30.048 L 241.750 29.960 241.375 30.366 M153.346 35.345 C 155.947 35.956,156.777 36.950,157.164 39.917 C 157.571 43.045,157.955 44.255,158.927 45.467 C 159.977 46.776,160.420 47.991,160.761 50.495 C 161.010 52.328,161.439 54.471,161.692 55.144 C 161.838 55.535,161.843 55.533,162.345 54.894 C 162.623 54.540,163.451 53.688,164.186 53.000 L 165.523 51.750 165.928 50.175 C 166.151 49.309,166.334 48.409,166.336 48.175 C 166.345 46.259,167.465 43.126,168.479 42.179 C 169.076 41.621,169.151 41.439,169.647 39.322 C 170.524 35.583,171.012 35.167,174.520 35.167 C 177.224 35.167,177.853 35.431,178.567 36.864 C 179.407 38.548,178.599 41.676,176.962 43.077 C 176.215 43.716,175.756 44.774,175.584 46.250 C 175.217 49.403,174.471 51.439,173.352 52.338 C 172.665 52.891,172.062 54.702,171.747 57.167 C 171.486 59.204,170.874 60.678,169.891 61.637 C 168.808 62.694,168.721 62.892,168.315 65.226 C 167.655 69.016,166.873 69.720,163.067 69.941 C 160.381 70.096,159.233 69.526,158.492 67.667 C 158.365 67.346,157.876 66.708,157.407 66.249 C 156.357 65.222,155.950 64.210,155.590 61.728 C 155.187 58.950,154.773 57.750,153.876 56.758 C 152.697 55.453,152.106 53.725,151.654 50.254 C 151.396 48.275,151.134 47.591,150.340 46.820 C 149.116 45.632,148.652 44.354,147.997 40.360 C 147.252 35.817,148.875 34.296,153.346 35.345 M201.658 35.335 C 203.320 35.687,204.392 36.468,204.908 37.704 C 205.113 38.195,205.359 38.415,206.092 38.761 C 207.340 39.352,207.718 39.982,208.445 42.683 C 208.782 43.935,209.188 45.073,209.368 45.273 C 211.037 47.121,210.806 51.730,208.949 53.642 C 207.333 55.307,207.771 55.236,198.500 55.333 L 190.417 55.417 189.467 55.862 L 188.518 56.307 189.001 57.200 C 189.267 57.691,189.600 58.536,189.742 59.078 C 190.038 60.214,190.683 60.999,191.323 61.001 C 191.558 61.002,192.374 61.152,193.136 61.335 C 195.160 61.820,197.511 61.773,201.840 61.161 C 205.767 60.606,206.284 60.643,207.133 61.548 C 208.685 63.200,208.264 65.518,206.003 67.759 C 203.797 69.946,203.325 70.044,195.399 69.959 C 187.985 69.880,186.803 69.623,185.640 67.830 C 185.224 67.190,183.596 65.667,183.328 65.667 C 182.474 65.667,181.188 63.426,180.746 61.167 C 180.327 59.029,180.023 58.073,179.655 57.740 C 178.702 56.877,178.609 56.495,178.533 53.097 C 178.452 49.478,178.551 48.889,179.418 47.877 C 180.113 47.064,180.379 46.373,180.745 44.417 C 181.249 41.727,181.993 40.355,183.318 39.671 C 184.014 39.311,184.955 38.352,185.489 37.457 C 186.069 36.484,187.429 35.794,189.837 35.251 C 191.147 34.955,200.167 35.019,201.658 35.335 M315.857 35.329 C 316.440 35.510,317.198 35.850,317.542 36.085 L 318.168 36.513 318.876 36.109 C 321.662 34.516,330.078 34.589,332.234 36.224 C 332.518 36.439,333.162 36.748,333.667 36.909 C 334.171 37.071,334.976 37.420,335.456 37.685 C 336.508 38.266,336.440 38.262,336.569 37.746 C 337.104 35.616,339.849 34.874,346.500 35.060 C 351.817 35.209,352.602 35.498,353.724 37.719 C 354.251 38.762,354.505 39.081,355.014 39.340 C 355.362 39.518,355.830 39.908,356.053 40.207 C 357.257 41.821,357.327 42.686,357.330 56.178 L 357.333 67.440 356.875 68.339 C 355.708 70.627,350.524 70.633,348.917 68.349 L 348.417 67.639 348.324 56.528 L 348.232 45.417 347.752 44.574 C 347.317 43.809,347.193 43.713,346.428 43.533 C 345.963 43.424,345.138 43.115,344.593 42.846 L 343.602 42.358 343.171 42.721 C 342.698 43.118,341.817 43.523,340.682 43.863 C 338.646 44.473,338.480 45.460,338.342 57.750 C 338.227 68.031,338.303 67.391,337.069 68.477 C 334.751 70.518,330.828 70.444,329.597 68.337 C 329.050 67.400,328.979 66.348,328.854 57.333 L 328.736 48.750 328.294 47.140 C 327.876 45.619,327.797 45.476,326.874 44.557 C 326.337 44.021,325.789 43.417,325.657 43.213 C 325.436 42.872,325.277 42.841,323.643 42.818 L 321.869 42.792 321.250 43.478 C 320.725 44.059,319.297 44.907,318.320 45.218 C 317.578 45.453,317.333 48.738,317.333 58.438 L 317.333 67.440 316.875 68.339 C 315.708 70.627,310.523 70.633,308.917 68.349 L 308.417 67.638 308.417 52.500 L 308.417 37.362 308.917 36.654 C 309.770 35.447,310.757 35.127,313.941 35.027 C 314.412 35.012,315.275 35.148,315.857 35.329 M385.961 35.478 C 387.723 35.917,388.893 36.609,389.355 37.485 C 389.742 38.221,390.616 39.127,391.250 39.450 C 392.725 40.200,393.257 41.252,394.006 44.897 C 394.376 46.704,394.569 47.307,394.885 47.647 C 395.703 48.528,395.830 48.895,395.989 50.846 C 396.123 52.487,396.101 52.947,395.828 54.178 C 395.427 55.991,395.365 56.161,394.908 56.667 C 394.512 57.104,394.018 58.599,393.601 60.621 C 393.266 62.245,393.004 62.743,391.830 63.976 C 391.279 64.555,390.636 65.281,390.401 65.589 C 390.167 65.896,389.586 66.391,389.112 66.689 C 388.638 66.986,387.800 67.653,387.250 68.171 C 385.457 69.859,385.246 69.903,378.534 69.966 C 371.067 70.037,370.173 69.843,367.975 67.679 C 367.255 66.970,366.116 66.043,364.646 64.970 C 363.903 64.427,362.939 62.591,362.672 61.210 C 362.222 58.881,361.947 58.132,361.240 57.304 C 359.818 55.638,359.879 49.258,361.332 47.750 C 361.937 47.121,362.119 46.640,362.499 44.667 C 363.031 41.905,363.813 40.364,364.990 39.755 C 365.712 39.382,366.942 38.297,367.470 37.568 C 368.249 36.492,370.169 35.550,372.333 35.183 C 374.358 34.839,384.258 35.053,385.961 35.478 M194.083 42.763 C 193.900 42.901,193.112 43.206,192.333 43.440 C 191.106 43.809,190.822 43.969,190.208 44.637 C 189.348 45.573,189.348 45.479,190.197 46.131 L 190.894 46.667 194.537 46.667 C 197.933 46.667,198.228 46.642,198.882 46.309 C 200.438 45.516,200.420 45.639,199.170 44.348 L 198.059 43.201 196.339 42.851 C 194.321 42.439,194.502 42.446,194.083 42.763 M288.083 42.988 C 287.533 43.245,286.705 43.544,286.243 43.652 C 285.560 43.813,285.272 44.002,284.703 44.663 L 284.002 45.476 284.698 46.071 L 285.393 46.667 289.035 46.667 L 292.676 46.667 293.659 46.170 C 294.924 45.532,294.942 45.487,294.204 44.815 C 293.863 44.504,293.387 44.013,293.148 43.723 C 292.766 43.260,292.530 43.162,291.231 42.921 C 290.417 42.770,289.600 42.618,289.417 42.584 C 289.233 42.550,288.633 42.731,288.083 42.988 M375.583 43.172 C 375.125 43.441,374.337 43.749,373.833 43.856 C 372.523 44.135,371.623 45.017,371.338 46.303 C 371.134 47.219,370.659 48.338,370.271 48.815 C 369.877 49.299,369.351 52.702,369.583 53.266 C 369.699 53.550,369.913 54.303,370.058 54.939 C 370.203 55.576,370.580 56.592,370.895 57.197 C 371.211 57.803,371.554 58.709,371.658 59.210 C 371.922 60.479,372.266 60.741,374.250 61.180 C 376.705 61.724,379.434 61.788,381.312 61.347 C 382.126 61.156,382.974 61.000,383.198 61.000 C 383.884 61.000,384.460 60.209,384.832 58.756 C 385.017 58.033,385.310 57.202,385.483 56.908 C 385.656 56.615,385.852 56.121,385.918 55.812 C 385.984 55.503,386.223 54.662,386.448 53.943 L 386.857 52.637 386.491 51.027 C 386.290 50.141,385.945 48.992,385.726 48.472 C 385.506 47.952,385.205 47.035,385.057 46.433 C 384.676 44.892,383.994 44.126,382.752 43.848 C 382.236 43.733,381.398 43.420,380.890 43.152 C 379.513 42.428,376.835 42.438,375.583 43.172 M0.000 75.239 L 0.000 76.333 37.333 76.333 L 74.667 76.333 74.667 75.420 L 74.667 74.507 39.042 74.429 C 19.448 74.387,2.648 74.305,1.708 74.248 L 0.000 74.145 0.000 75.239 " stroke="none" fill="#06a4eb" fill-rule="evenodd"></path><path id="path3" d="M36.500 0.977 C 36.500 2.111,36.179 2.619,34.685 3.847 C 33.639 4.708,33.378 5.150,32.540 7.486 C 32.019 8.937,31.766 9.390,31.000 10.240 C 30.496 10.799,29.904 11.667,29.685 12.170 C 28.706 14.417,28.279 15.191,27.604 15.944 C 26.720 16.930,26.022 18.159,25.350 19.917 C 24.868 21.175,24.482 21.822,23.214 23.495 C 22.919 23.884,22.447 24.813,22.166 25.559 C 21.293 27.877,21.131 28.166,20.257 28.969 C 19.127 30.008,18.787 30.529,18.330 31.915 C 17.676 33.899,17.231 34.712,16.213 35.782 C 15.186 36.859,15.085 37.025,14.036 39.336 C 13.681 40.117,13.165 41.017,12.889 41.336 C 12.201 42.130,11.608 43.197,11.084 44.583 C 10.336 46.564,10.048 47.101,9.257 47.992 C 8.813 48.492,8.040 49.756,7.412 51.009 C 6.723 52.384,6.033 53.495,5.507 54.075 C 4.524 55.162,4.372 55.443,3.662 57.500 C 2.632 60.484,2.223 61.000,0.885 61.000 L 0.000 61.000 0.000 63.167 L 0.000 65.333 0.958 65.333 C 2.111 65.333,2.603 64.742,3.178 62.665 C 3.631 61.032,4.165 60.038,5.054 59.177 C 5.836 58.419,6.708 56.837,6.898 55.833 C 7.078 54.875,7.862 53.630,8.594 53.140 C 9.380 52.614,10.032 51.401,10.755 49.121 C 11.140 47.905,11.326 47.569,11.859 47.121 C 12.211 46.825,12.800 46.331,13.167 46.022 C 13.533 45.714,13.834 45.339,13.835 45.189 C 13.841 44.069,15.098 40.500,15.486 40.500 C 16.171 40.500,17.352 38.806,17.760 37.239 C 18.101 35.929,18.564 35.105,19.514 34.120 C 20.369 33.233,21.031 31.999,21.591 30.250 C 21.852 29.436,22.116 29.048,23.007 28.167 C 24.204 26.982,24.284 26.841,25.096 24.449 C 25.652 22.810,26.233 21.667,26.508 21.667 C 27.226 21.667,28.088 20.358,28.574 18.532 C 29.135 16.423,29.228 16.249,30.405 15.089 C 31.567 13.944,32.042 13.162,32.346 11.897 C 32.606 10.812,33.152 9.886,33.984 9.117 C 34.720 8.437,35.192 7.603,35.895 5.738 C 36.575 3.935,37.358 3.304,39.180 3.090 C 39.677 3.032,40.487 2.913,40.980 2.827 C 42.424 2.574,44.229 3.622,44.949 5.131 C 45.099 5.445,45.521 5.860,45.942 6.107 C 46.747 6.579,47.358 7.484,47.670 8.662 C 47.984 9.854,48.744 11.202,49.466 11.848 C 50.268 12.566,50.947 13.844,51.346 15.389 C 51.677 16.668,52.339 17.741,53.011 18.089 C 53.824 18.510,54.307 19.292,54.835 21.048 C 55.689 23.884,55.798 24.118,56.470 24.528 C 57.539 25.181,58.237 26.453,58.398 28.040 C 58.555 29.597,59.014 30.409,60.000 30.870 C 61.115 31.393,61.767 32.339,62.211 34.083 C 62.662 35.851,62.782 36.040,64.118 37.072 C 65.071 37.807,65.477 38.550,65.914 40.354 C 66.337 42.100,66.852 42.995,67.681 43.424 C 68.355 43.772,68.802 44.497,69.354 46.130 C 69.623 46.929,69.968 47.948,70.120 48.393 C 70.335 49.025,70.588 49.348,71.273 49.865 C 72.292 50.635,72.643 51.171,73.166 52.761 C 73.734 54.489,74.240 55.392,75.164 56.330 C 76.119 57.301,76.403 57.789,76.680 58.933 C 76.979 60.170,77.811 61.629,78.498 62.123 C 80.872 63.830,81.718 70.521,79.790 72.343 C 78.310 73.742,79.606 73.700,39.833 73.637 L 5.250 73.583 3.491 72.875 C 2.208 72.358,1.497 72.167,0.866 72.167 L 0.000 72.167 0.000 73.156 L 0.000 74.145 1.708 74.248 C 2.648 74.305,19.448 74.387,39.042 74.429 L 74.667 74.507 74.667 75.420 L 74.667 76.333 77.000 76.333 L 79.333 76.333 79.333 75.347 L 79.333 74.361 80.312 73.722 C 80.850 73.371,81.520 72.959,81.800 72.806 C 82.081 72.653,82.547 72.203,82.836 71.806 L 83.361 71.083 83.300 68.750 C 83.229 66.025,82.703 64.409,81.462 63.108 C 80.860 62.475,80.460 61.744,79.445 59.421 C 79.246 58.966,78.688 58.149,78.205 57.605 C 77.273 56.557,76.958 55.959,76.246 53.882 C 75.750 52.434,75.299 51.752,74.148 50.708 C 73.476 50.098,73.255 49.717,72.570 47.983 C 72.131 46.874,71.543 45.665,71.261 45.296 C 69.977 43.612,69.674 43.097,69.099 41.613 C 68.495 40.053,67.785 38.859,66.526 37.282 C 66.174 36.841,65.635 35.866,65.329 35.115 C 64.646 33.444,64.466 33.143,63.497 32.064 C 63.032 31.546,62.327 30.387,61.701 29.113 C 61.081 27.851,60.362 26.668,59.898 26.145 C 59.161 25.315,58.167 23.517,58.167 23.012 C 58.167 22.544,56.840 20.068,56.152 19.250 C 55.766 18.792,55.272 18.004,55.053 17.500 C 54.200 15.534,53.770 14.820,52.905 13.926 C 51.852 12.839,51.554 12.296,50.855 10.183 C 50.309 8.534,49.675 7.415,48.817 6.583 C 48.533 6.308,48.148 5.785,47.961 5.420 C 47.537 4.594,46.941 3.666,46.128 2.568 C 45.593 1.845,45.500 1.593,45.500 0.860 L 45.500 0.000 41.000 0.000 L 36.500 0.000 36.500 0.977 M46.750 29.159 C 44.654 29.274,44.056 29.508,42.746 30.728 C 42.307 31.138,41.490 31.661,40.932 31.892 C 40.373 32.123,39.323 32.554,38.597 32.850 C 37.539 33.281,37.076 33.593,36.264 34.418 C 35.373 35.324,35.086 35.503,33.895 35.898 C 32.265 36.439,30.889 37.241,29.756 38.313 C 29.270 38.772,28.564 39.235,28.083 39.410 C 25.456 40.365,24.487 41.003,23.949 42.133 C 23.474 43.132,22.572 43.750,21.019 44.142 C 19.419 44.546,18.856 45.011,18.346 46.353 C 18.123 46.938,17.730 47.776,17.471 48.215 L 17.001 49.013 17.430 49.860 C 17.666 50.325,17.961 51.192,18.085 51.786 C 18.428 53.426,19.049 54.231,20.551 54.985 C 20.842 55.131,21.343 55.643,21.665 56.124 C 23.048 58.190,24.743 58.283,26.683 56.398 L 27.283 55.815 28.261 56.262 C 28.799 56.508,29.619 56.840,30.084 57.000 L 30.928 57.291 31.904 56.826 C 32.441 56.570,32.942 56.260,33.017 56.138 C 33.402 55.516,34.430 54.168,34.521 54.168 C 34.579 54.167,34.721 54.395,34.836 54.673 C 35.529 56.347,36.594 57.029,39.264 57.510 C 41.733 57.955,41.706 57.944,42.705 58.970 L 43.627 59.917 43.732 61.772 C 43.824 63.407,43.904 63.773,44.404 64.855 C 44.715 65.531,45.023 66.365,45.087 66.708 C 45.227 67.457,45.591 67.529,46.162 66.922 C 46.942 66.091,49.572 65.698,55.615 65.508 C 61.204 65.333,61.674 65.090,61.659 62.391 C 61.639 58.722,61.247 58.433,55.938 58.171 C 50.863 57.921,50.183 57.377,51.016 54.235 C 51.439 52.640,51.431 52.950,51.107 50.837 L 50.840 49.090 51.267 48.420 C 51.503 48.052,52.195 47.259,52.806 46.659 C 53.417 46.060,54.256 45.197,54.671 44.743 C 55.086 44.288,55.884 43.492,56.444 42.973 C 57.287 42.193,57.624 41.702,58.392 40.140 L 59.321 38.250 58.907 36.667 C 58.680 35.796,58.425 34.507,58.339 33.803 C 58.085 31.708,58.148 31.753,54.939 31.368 C 52.640 31.093,52.624 31.088,52.202 30.535 C 51.618 29.769,49.460 28.841,48.700 29.029 C 48.636 29.045,47.758 29.103,46.750 29.159 M42.133 37.976 C 42.566 38.250,41.894 38.581,41.379 38.346 C 41.022 38.184,40.982 38.114,41.175 37.991 C 41.475 37.802,41.849 37.796,42.133 37.976 M35.178 41.506 C 35.631 41.748,35.580 41.926,34.989 42.171 C 34.553 42.352,34.439 42.344,34.212 42.116 C 33.698 41.603,34.459 41.121,35.178 41.506 M27.667 45.490 C 27.667 45.801,27.296 45.867,27.032 45.603 C 26.783 45.355,26.797 45.333,27.214 45.333 C 27.463 45.333,27.667 45.404,27.667 45.490 M24.000 48.750 C 24.216 49.011,23.951 50.000,23.665 50.000 C 23.473 50.000,23.305 49.185,23.421 48.819 C 23.543 48.435,23.721 48.414,24.000 48.750 M31.000 49.033 C 31.000 49.303,30.951 49.351,30.815 49.215 C 30.713 49.113,30.679 48.948,30.741 48.848 C 30.913 48.569,31.000 48.631,31.000 49.033 " stroke="none" fill="#4a4114" fill-rule="evenodd"></path><path id="path4" d="M138.172 20.867 C 137.532 21.113,136.919 21.552,136.107 22.346 L 134.954 23.475 135.067 24.362 C 135.419 27.116,135.454 27.212,136.567 28.380 C 139.524 31.487,144.055 29.931,144.757 25.567 C 145.088 23.508,145.061 23.418,143.763 22.204 C 141.998 20.553,140.145 20.110,138.172 20.867 M109.724 21.664 C 108.366 22.343,107.887 23.050,107.564 24.857 C 107.427 25.623,107.244 26.480,107.158 26.762 C 106.908 27.572,106.970 63.645,107.225 65.925 C 107.688 70.067,107.470 69.998,120.107 69.999 C 130.792 70.000,131.363 69.950,132.330 68.920 C 132.867 68.349,136.075 68.272,136.569 68.818 C 138.027 70.429,141.797 70.287,143.730 68.549 C 145.228 67.201,145.072 68.785,145.174 53.921 C 145.256 42.043,145.294 40.622,145.564 39.444 L 145.864 38.137 145.474 37.716 C 142.742 34.769,138.894 34.240,136.242 36.448 C 134.716 37.718,134.833 36.674,134.832 49.020 C 134.831 59.302,134.812 59.994,134.501 61.293 C 133.976 63.483,132.858 65.365,132.588 64.513 C 132.355 63.779,131.183 62.538,130.314 62.105 L 129.435 61.667 123.825 61.667 L 118.216 61.667 117.191 60.882 L 116.167 60.097 116.167 43.781 C 116.167 25.847,116.204 26.555,115.145 24.458 C 114.485 23.149,113.504 22.113,112.538 21.704 C 111.140 21.111,110.840 21.107,109.724 21.664 M236.167 21.400 C 234.240 21.695,234.126 21.742,233.361 22.572 C 231.807 24.258,231.798 24.419,231.862 47.529 L 231.917 67.250 232.275 67.917 C 233.359 69.931,233.212 69.904,243.500 69.972 C 255.807 70.054,256.998 69.847,258.945 67.298 C 259.053 67.157,259.747 66.846,260.489 66.607 C 262.176 66.063,262.541 65.823,263.353 64.723 C 263.712 64.237,264.411 63.581,264.906 63.264 C 265.866 62.650,266.481 61.784,266.850 60.527 C 267.024 59.933,267.218 59.704,267.938 59.243 C 269.371 58.327,269.661 57.648,270.165 54.035 C 270.353 52.687,270.601 51.222,270.715 50.779 L 270.924 49.975 271.368 50.325 C 272.121 50.917,272.636 52.233,272.936 54.333 C 273.229 56.378,273.398 56.848,274.149 57.706 C 274.480 58.084,274.711 58.631,274.905 59.500 C 275.795 63.487,276.183 64.448,277.228 65.244 C 277.532 65.477,277.849 65.667,277.932 65.668 C 278.076 65.670,279.242 66.789,280.794 68.415 C 282.079 69.761,283.547 69.998,290.602 69.999 C 297.775 70.000,298.484 69.840,300.563 67.739 C 303.275 65.001,303.299 62.040,300.620 60.921 C 300.027 60.673,299.773 60.688,296.300 61.171 C 292.124 61.753,289.656 61.779,287.167 61.269 C 284.908 60.806,284.702 60.619,284.095 58.478 C 283.949 57.962,283.645 57.270,283.421 56.939 C 283.018 56.345,283.017 56.336,283.348 56.159 C 284.716 55.426,284.738 55.425,293.083 55.335 L 301.083 55.250 302.000 54.799 C 305.012 53.319,306.068 48.521,304.040 45.536 C 303.805 45.190,303.330 43.886,302.966 42.586 C 302.215 39.903,301.869 39.344,300.568 38.706 C 300.063 38.458,299.620 38.116,299.560 37.926 C 298.817 35.585,297.085 35.083,289.750 35.083 C 283.429 35.083,281.734 35.458,280.322 37.168 C 279.357 38.337,278.095 39.560,277.351 40.049 C 276.417 40.662,275.777 42.030,275.256 44.525 C 275.039 45.565,274.780 46.629,274.679 46.890 L 274.497 47.362 273.963 47.050 C 273.185 46.596,272.905 45.993,272.392 43.676 C 272.024 42.017,271.827 41.465,271.399 40.905 C 270.811 40.134,270.686 39.649,270.163 36.083 C 269.738 33.194,269.193 31.900,268.134 31.268 C 267.599 30.949,267.320 30.596,266.850 29.644 C 266.410 28.752,266.050 28.279,265.500 27.871 C 265.087 27.565,264.188 26.765,263.500 26.093 C 262.442 25.060,262.096 24.827,261.250 24.581 C 258.367 23.743,258.074 23.623,257.406 23.008 C 256.675 22.335,255.807 21.985,253.827 21.568 C 252.106 21.206,238.298 21.074,236.167 21.400 M140.940 22.849 C 141.352 23.133,141.724 23.455,141.766 23.566 C 141.887 23.881,141.346 27.200,141.132 27.458 C 140.502 28.218,139.498 28.218,138.868 27.458 C 138.713 27.272,138.167 24.318,138.167 23.669 C 138.167 23.458,139.677 22.343,139.970 22.337 C 140.091 22.335,140.527 22.565,140.940 22.849 M112.182 25.916 L 112.829 27.083 112.831 43.565 C 112.833 59.586,112.843 60.078,113.168 61.149 C 114.300 64.875,115.461 65.333,123.779 65.333 L 129.188 65.333 129.636 65.858 C 129.882 66.146,130.215 66.586,130.377 66.834 L 130.670 67.287 130.005 67.727 L 129.340 68.167 120.006 68.167 L 110.672 68.167 110.150 67.701 C 109.368 67.002,109.352 66.579,109.342 45.872 L 109.333 27.160 109.738 26.164 C 110.693 23.814,110.999 23.783,112.182 25.916 M240.833 24.602 C 241.694 24.863,245.679 24.905,247.667 24.673 C 248.925 24.527,250.182 24.619,253.333 25.087 C 254.204 25.216,255.292 25.366,255.750 25.421 C 258.873 25.792,260.928 26.640,261.629 27.845 C 261.860 28.241,262.312 28.620,262.979 28.976 C 264.196 29.624,264.984 30.506,265.408 31.694 C 265.636 32.329,265.997 32.845,266.674 33.500 C 267.987 34.770,268.454 36.354,268.935 41.167 C 269.630 48.122,268.554 55.170,266.494 57.160 C 265.778 57.852,265.448 58.333,265.173 59.083 C 264.705 60.365,264.112 61.137,263.353 61.453 C 262.393 61.853,261.851 62.311,261.483 63.033 C 261.035 63.912,260.408 64.453,259.583 64.673 C 258.872 64.862,257.703 65.251,256.083 65.838 C 255.442 66.071,254.865 66.430,254.473 66.841 C 253.340 68.032,252.974 68.078,244.583 68.081 C 236.274 68.084,234.813 67.903,234.590 66.848 C 234.245 65.213,234.172 61.503,234.170 45.317 C 234.166 25.928,234.130 26.664,235.129 26.009 C 238.179 24.007,238.559 23.913,240.833 24.602 M240.645 28.378 C 240.233 28.693,239.732 29.303,239.461 29.822 L 238.992 30.721 239.037 45.819 L 239.083 60.917 239.531 62.142 C 240.720 65.397,241.465 65.676,247.417 65.100 C 249.776 64.872,250.787 64.591,251.430 63.987 C 251.623 63.806,253.028 63.250,254.551 62.753 C 257.806 61.691,257.952 61.607,258.752 60.352 C 259.186 59.671,259.669 59.193,260.415 58.705 C 261.546 57.967,261.747 57.652,262.768 55.005 C 263.033 54.321,263.415 53.533,263.617 53.255 C 265.884 50.146,265.904 42.028,263.656 37.917 C 263.305 37.275,262.748 36.037,262.416 35.167 C 261.748 33.407,261.230 32.756,259.908 32.010 C 259.442 31.746,258.667 31.078,258.187 30.524 C 256.577 28.665,252.347 27.841,244.388 27.836 L 241.359 27.833 240.645 28.378 M253.398 30.484 C 253.971 30.687,254.712 31.127,255.176 31.541 C 256.952 33.123,258.107 33.859,259.542 34.324 C 259.942 34.453,260.167 34.629,260.167 34.811 C 260.167 34.968,260.382 35.806,260.645 36.673 C 261.858 40.670,262.260 46.348,261.596 50.083 C 261.137 52.665,261.068 52.972,260.564 54.724 L 260.091 56.364 259.087 56.827 C 257.916 57.367,257.151 58.114,256.682 59.176 L 256.346 59.935 254.381 60.454 C 251.898 61.110,248.401 61.505,244.683 61.549 L 241.782 61.583 241.391 60.849 L 241.000 60.114 241.000 45.443 L 241.000 30.771 241.375 30.366 L 241.750 29.960 247.083 30.048 C 251.929 30.129,252.507 30.169,253.398 30.484 M149.576 35.313 C 147.865 36.091,147.492 37.282,147.997 40.360 C 148.652 44.354,149.116 45.632,150.340 46.820 C 151.134 47.591,151.396 48.275,151.654 50.254 C 152.106 53.725,152.697 55.453,153.876 56.758 C 154.773 57.750,155.187 58.950,155.590 61.728 C 155.950 64.210,156.357 65.222,157.407 66.249 C 157.876 66.708,158.365 67.346,158.492 67.667 C 159.233 69.526,160.381 70.096,163.067 69.941 C 166.873 69.720,167.655 69.016,168.315 65.226 C 168.721 62.892,168.808 62.694,169.891 61.637 C 170.874 60.678,171.486 59.204,171.747 57.167 C 172.062 54.702,172.665 52.891,173.352 52.338 C 174.471 51.439,175.217 49.403,175.584 46.250 C 175.756 44.774,176.215 43.716,176.962 43.077 C 178.599 41.676,179.407 38.548,178.567 36.864 C 177.853 35.431,177.224 35.167,174.520 35.167 C 171.012 35.167,170.524 35.583,169.647 39.322 C 169.151 41.439,169.076 41.621,168.479 42.179 C 167.465 43.126,166.345 46.259,166.336 48.175 C 166.334 48.409,166.151 49.309,165.928 50.175 L 165.523 51.750 164.186 53.000 C 163.451 53.688,162.623 54.540,162.345 54.894 C 161.843 55.533,161.838 55.535,161.692 55.144 C 161.439 54.471,161.010 52.328,160.761 50.495 C 160.420 47.991,159.977 46.776,158.927 45.467 C 157.955 44.255,157.571 43.045,157.164 39.917 C 156.777 36.950,155.947 35.956,153.346 35.345 C 151.542 34.922,150.459 34.913,149.576 35.313 M189.837 35.251 C 187.429 35.794,186.069 36.484,185.489 37.457 C 184.955 38.352,184.014 39.311,183.318 39.671 C 181.993 40.355,181.249 41.727,180.745 44.417 C 180.379 46.373,180.113 47.064,179.418 47.877 C 178.551 48.889,178.452 49.478,178.533 53.097 C 178.609 56.495,178.702 56.877,179.655 57.740 C 180.023 58.073,180.327 59.029,180.746 61.167 C 181.188 63.426,182.474 65.667,183.328 65.667 C 183.596 65.667,185.224 67.190,185.640 67.830 C 186.803 69.623,187.985 69.880,195.399 69.959 C 203.325 70.044,203.797 69.946,206.003 67.759 C 208.264 65.518,208.685 63.200,207.133 61.548 C 206.284 60.643,205.767 60.606,201.840 61.161 C 197.511 61.773,195.160 61.820,193.136 61.335 C 192.374 61.152,191.558 61.002,191.323 61.001 C 190.683 60.999,190.038 60.214,189.742 59.078 C 189.600 58.536,189.267 57.691,189.001 57.200 L 188.518 56.307 189.467 55.862 L 190.417 55.417 198.500 55.333 C 207.771 55.236,207.333 55.307,208.949 53.642 C 210.806 51.730,211.037 47.121,209.368 45.273 C 209.188 45.073,208.782 43.935,208.445 42.683 C 207.718 39.982,207.340 39.352,206.092 38.761 C 205.359 38.415,205.113 38.195,204.908 37.704 C 204.392 36.468,203.320 35.687,201.658 35.335 C 200.167 35.019,191.147 34.955,189.837 35.251 M311.917 35.152 C 310.469 35.274,309.576 35.721,308.917 36.654 L 308.417 37.362 308.417 52.500 L 308.417 67.638 308.917 68.349 C 310.523 70.633,315.708 70.627,316.875 68.339 L 317.333 67.440 317.333 58.438 C 317.333 48.738,317.578 45.453,318.320 45.218 C 319.297 44.907,320.725 44.059,321.250 43.478 L 321.869 42.792 323.643 42.818 C 325.277 42.841,325.436 42.872,325.657 43.213 C 325.789 43.417,326.337 44.021,326.874 44.557 C 327.797 45.476,327.876 45.619,328.294 47.140 L 328.736 48.750 328.854 57.333 C 328.979 66.348,329.050 67.400,329.597 68.337 C 330.828 70.444,334.751 70.518,337.069 68.477 C 338.303 67.391,338.227 68.031,338.342 57.750 C 338.480 45.460,338.646 44.473,340.682 43.863 C 341.817 43.523,342.698 43.118,343.171 42.721 L 343.602 42.358 344.593 42.846 C 345.138 43.115,345.963 43.424,346.428 43.533 C 347.193 43.713,347.317 43.809,347.752 44.574 L 348.232 45.417 348.324 56.528 L 348.417 67.639 348.917 68.349 C 350.524 70.633,355.708 70.627,356.875 68.339 L 357.333 67.440 357.330 56.178 C 357.327 42.686,357.257 41.821,356.053 40.207 C 355.830 39.908,355.362 39.518,355.014 39.340 C 354.505 39.081,354.251 38.762,353.724 37.719 C 352.602 35.498,351.817 35.209,346.500 35.060 C 339.849 34.874,337.104 35.616,336.569 37.746 C 336.440 38.262,336.508 38.266,335.456 37.685 C 334.976 37.420,334.171 37.071,333.667 36.909 C 333.162 36.748,332.518 36.439,332.234 36.224 C 330.920 35.228,330.116 35.090,325.583 35.087 C 321.077 35.083,320.522 35.168,318.876 36.109 L 318.168 36.513 317.542 36.085 C 316.177 35.152,314.743 34.914,311.917 35.152 M372.333 35.183 C 370.169 35.550,368.249 36.492,367.470 37.568 C 366.942 38.297,365.712 39.382,364.990 39.755 C 363.813 40.364,363.031 41.905,362.499 44.667 C 362.119 46.640,361.937 47.121,361.332 47.750 C 360.495 48.619,360.335 49.257,360.319 51.786 C 360.294 55.611,360.415 56.337,361.240 57.304 C 361.947 58.132,362.222 58.881,362.672 61.210 C 362.939 62.591,363.903 64.427,364.646 64.970 C 366.116 66.043,367.255 66.970,367.975 67.679 C 370.173 69.843,371.067 70.037,378.534 69.966 C 385.246 69.903,385.457 69.859,387.250 68.171 C 387.800 67.653,388.638 66.986,389.112 66.689 C 389.586 66.391,390.167 65.896,390.401 65.589 C 390.636 65.281,391.279 64.555,391.830 63.976 C 393.004 62.743,393.266 62.245,393.601 60.621 C 394.018 58.599,394.512 57.104,394.908 56.667 C 396.040 55.415,396.477 49.959,395.562 48.513 C 395.412 48.276,395.108 47.887,394.885 47.647 C 394.569 47.307,394.376 46.704,394.006 44.897 C 393.257 41.252,392.725 40.200,391.250 39.450 C 390.616 39.127,389.742 38.221,389.355 37.485 C 388.893 36.609,387.723 35.917,385.961 35.478 C 384.258 35.053,374.358 34.839,372.333 35.183 M140.671 37.109 C 140.898 37.260,141.290 37.574,141.542 37.807 L 142.000 38.229 142.000 50.691 C 142.000 61.806,141.906 65.402,141.574 66.958 C 141.464 67.474,140.286 68.234,139.796 68.106 C 138.065 67.655,138.019 67.210,138.008 50.823 L 138.000 38.229 138.458 37.807 C 139.112 37.205,139.700 36.833,140.000 36.833 C 140.143 36.833,140.445 36.957,140.671 37.109 M152.480 37.474 C 154.097 38.258,155.230 40.051,155.664 42.516 C 156.469 47.088,157.008 48.812,157.981 49.920 C 158.645 50.676,159.083 52.104,159.666 55.416 C 160.264 58.804,160.535 59.676,161.194 60.335 C 161.802 60.943,161.620 61.056,163.696 58.786 C 164.637 57.758,165.616 56.786,165.872 56.627 C 166.127 56.467,166.484 56.094,166.664 55.797 C 166.982 55.275,167.075 54.899,167.500 52.417 C 168.052 49.191,168.199 48.552,168.597 47.667 C 168.839 47.126,169.199 46.616,169.423 46.497 C 170.172 46.096,170.596 44.872,171.341 40.955 C 171.716 38.986,171.975 38.032,172.216 37.725 L 172.559 37.290 174.404 37.406 C 177.097 37.577,177.393 37.945,175.994 39.386 C 175.066 40.341,174.688 41.320,173.989 44.583 C 173.596 46.412,172.861 48.223,172.446 48.382 C 171.704 48.667,171.159 50.113,170.338 53.981 C 169.745 56.772,169.356 57.769,168.775 57.990 C 167.816 58.355,167.776 58.462,166.577 63.805 C 165.996 66.392,165.383 67.155,163.347 67.818 C 161.466 68.431,160.805 68.026,160.272 65.932 C 159.888 64.425,159.125 62.936,158.501 62.474 C 157.793 61.951,157.124 59.904,156.384 56.000 C 156.153 54.783,155.605 53.498,155.066 52.910 C 154.162 51.922,153.716 50.762,153.173 47.978 C 152.594 45.015,151.645 42.667,151.026 42.667 C 150.801 42.667,150.499 41.869,149.990 39.932 L 149.513 38.115 150.167 37.461 C 150.898 36.730,150.942 36.730,152.480 37.474 M200.250 37.330 C 202.007 37.782,202.071 37.823,202.586 38.838 C 203.075 39.804,203.953 40.589,204.840 40.855 C 206.725 41.420,207.947 47.575,206.835 50.910 C 206.016 53.370,207.002 53.130,197.357 53.216 C 187.091 53.308,187.175 53.294,185.977 55.158 C 185.227 56.323,185.536 57.889,186.804 59.358 C 187.149 59.757,187.671 60.464,187.964 60.930 C 188.554 61.865,189.404 62.615,190.592 63.246 C 191.022 63.475,191.543 63.844,191.749 64.067 C 192.906 65.315,198.811 66.012,201.625 65.232 C 202.057 65.112,202.500 65.918,202.500 66.824 C 202.500 68.752,190.350 68.739,189.072 66.810 C 188.865 66.496,188.456 66.221,187.924 66.036 C 186.852 65.664,183.586 62.487,182.915 61.163 C 180.791 56.973,181.554 44.473,184.028 42.901 C 184.365 42.687,184.683 42.377,184.736 42.211 C 184.890 41.724,187.205 39.552,187.750 39.383 C 188.041 39.293,188.423 38.964,188.664 38.597 C 189.578 37.203,191.261 36.828,196.250 36.906 C 198.226 36.936,199.064 37.025,200.250 37.330 M294.334 37.243 C 296.409 37.711,296.761 37.886,296.998 38.565 C 297.319 39.485,298.018 40.193,299.116 40.707 C 300.678 41.437,301.338 43.017,301.746 47.000 L 301.960 49.083 301.393 50.833 C 300.561 53.400,301.432 53.166,292.690 53.168 C 282.377 53.169,281.691 53.283,280.531 55.180 C 279.794 56.386,280.161 58.176,281.400 59.415 C 281.631 59.647,282.014 60.165,282.249 60.567 C 282.790 61.490,284.067 62.692,285.018 63.173 C 285.421 63.377,286.056 63.823,286.430 64.165 C 287.678 65.308,290.927 65.723,295.579 65.333 C 296.695 65.240,296.855 65.389,297.050 66.695 C 297.172 67.514,296.700 67.729,294.167 68.003 C 289.380 68.522,284.069 68.004,283.746 66.986 C 283.620 66.591,282.929 66.104,282.119 65.842 C 281.206 65.545,277.997 62.296,277.426 61.088 C 276.574 59.287,275.781 49.528,276.405 48.518 C 276.453 48.441,276.611 47.638,276.757 46.734 C 277.074 44.761,277.746 43.350,278.608 42.841 C 278.920 42.657,279.221 42.374,279.277 42.212 C 279.421 41.796,281.695 39.500,281.962 39.500 C 282.435 39.500,283.139 38.987,283.300 38.525 C 283.835 36.988,290.021 36.269,294.334 37.243 M329.795 37.436 C 330.187 37.665,330.688 38.138,330.909 38.488 C 331.698 39.738,332.104 39.927,335.417 40.589 C 338.435 41.192,338.649 41.354,337.842 42.429 C 337.572 42.789,337.146 43.721,336.895 44.500 C 336.645 45.279,336.299 46.123,336.125 46.376 C 335.951 46.629,335.627 47.284,335.405 47.831 L 335.000 48.827 334.983 56.288 C 334.969 62.300,334.912 64.103,334.691 65.567 L 334.417 67.384 333.630 67.817 C 332.732 68.312,332.277 68.192,331.600 67.280 C 331.257 66.819,331.249 66.621,331.144 56.364 C 331.018 44.108,331.139 44.905,329.108 42.917 C 328.453 42.275,327.714 41.477,327.466 41.144 C 326.784 40.226,325.889 39.884,323.588 39.663 C 320.259 39.342,319.419 38.478,321.390 37.401 C 322.665 36.705,328.585 36.729,329.795 37.436 M349.582 37.364 L 351.081 37.759 351.703 38.898 C 352.046 39.524,352.815 40.685,353.414 41.477 C 354.484 42.893,355.026 44.012,355.361 45.498 C 355.616 46.629,355.741 62.342,355.516 65.029 C 355.348 67.035,355.292 67.284,354.918 67.657 L 354.506 68.070 352.887 67.703 C 350.502 67.161,350.691 68.131,350.516 55.583 C 350.366 44.881,350.406 45.234,349.040 42.500 C 347.852 40.119,346.206 39.488,341.800 39.725 C 339.894 39.827,339.832 39.820,339.606 39.457 C 338.644 37.914,339.211 37.555,343.583 36.935 C 344.897 36.749,348.126 36.980,349.582 37.364 M384.456 37.423 C 385.713 37.889,385.708 37.885,388.905 40.791 C 391.691 43.324,392.016 43.947,392.522 47.713 C 393.353 53.914,392.274 61.132,390.448 61.590 C 389.897 61.729,389.232 62.490,389.087 63.150 C 388.903 63.988,387.518 65.131,386.527 65.262 C 385.340 65.420,384.728 65.841,384.479 66.670 C 384.215 67.554,383.825 67.744,381.805 67.979 C 377.356 68.496,371.667 67.980,371.667 67.058 C 371.667 66.428,370.668 65.734,369.333 65.437 C 368.744 65.306,367.216 63.917,366.831 63.162 C 366.653 62.813,366.195 62.314,365.813 62.055 C 362.680 59.924,362.695 45.319,365.833 42.834 C 366.190 42.551,366.527 42.178,366.582 42.004 C 366.743 41.498,368.964 39.710,369.575 39.596 C 370.135 39.491,370.581 39.111,370.904 38.463 C 371.545 37.177,373.649 36.808,379.688 36.923 C 383.063 36.988,383.368 37.020,384.456 37.423 M315.430 37.509 C 315.891 37.826,316.322 38.318,316.572 38.811 C 316.968 39.591,317.458 40.160,318.480 41.022 C 319.185 41.618,319.140 41.821,318.148 42.497 C 315.865 44.053,315.667 45.122,315.665 55.912 C 315.664 64.813,315.521 67.054,314.915 67.660 L 314.506 68.070 312.887 67.703 C 310.871 67.245,310.970 67.364,310.723 65.123 C 310.376 61.975,310.416 38.279,310.769 37.979 C 311.045 37.745,313.607 37.048,314.303 37.017 C 314.516 37.008,315.023 37.229,315.430 37.509 M192.500 39.917 C 190.195 40.199,189.500 40.573,189.500 41.531 C 189.500 41.839,187.650 43.840,186.966 44.271 C 185.940 44.919,185.880 45.236,186.502 46.730 C 187.043 48.028,187.608 48.650,188.493 48.919 C 188.718 48.988,189.327 49.334,189.846 49.689 L 190.790 50.333 194.567 50.333 C 198.562 50.333,199.399 50.175,200.141 49.281 C 200.253 49.146,200.676 48.987,201.081 48.926 C 201.949 48.796,202.608 48.038,203.179 46.512 C 203.749 44.988,203.496 44.461,201.335 42.677 C 200.953 42.362,200.466 41.762,200.253 41.344 C 199.805 40.464,199.159 40.029,198.139 39.921 C 196.273 39.723,194.096 39.721,192.500 39.917 M286.931 39.920 C 284.887 40.170,284.352 40.439,284.092 41.344 C 283.917 41.954,281.843 44.255,281.318 44.422 C 279.774 44.911,281.565 49.000,283.323 49.000 C 283.417 49.000,283.889 49.300,284.372 49.666 L 285.250 50.332 289.048 50.333 C 293.115 50.333,293.404 50.281,294.630 49.324 C 294.839 49.161,295.315 48.976,295.687 48.913 C 296.488 48.778,297.187 47.922,297.778 46.352 C 298.208 45.213,297.976 44.394,297.016 43.656 C 295.663 42.616,295.283 42.223,294.900 41.467 C 294.432 40.544,293.739 40.047,292.755 39.929 C 291.034 39.721,288.588 39.718,286.931 39.920 M375.102 39.925 C 373.283 40.266,372.440 40.672,371.948 41.444 C 371.723 41.796,371.335 42.271,371.085 42.500 C 370.834 42.729,370.286 43.367,369.866 43.917 C 369.446 44.467,368.891 45.137,368.634 45.406 C 367.566 46.526,367.147 48.443,367.137 52.250 C 367.127 56.491,367.429 57.830,368.726 59.299 C 369.026 59.639,369.469 60.260,369.710 60.681 C 370.279 61.672,371.243 62.532,372.492 63.162 C 373.043 63.441,373.615 63.853,373.763 64.080 C 374.959 65.904,381.525 65.971,382.855 64.172 C 383.070 63.882,383.684 63.411,384.218 63.126 C 385.263 62.569,386.231 61.589,386.757 60.558 C 386.936 60.205,387.354 59.611,387.686 59.236 C 389.331 57.379,389.848 50.709,388.619 47.197 C 388.133 45.808,388.198 45.909,386.417 43.759 C 385.683 42.873,384.853 41.834,384.571 41.450 C 383.519 40.012,378.741 39.243,375.102 39.925 M196.339 42.851 L 198.059 43.201 199.170 44.348 C 200.420 45.639,200.438 45.516,198.882 46.309 C 198.228 46.642,197.933 46.667,194.537 46.667 L 190.894 46.667 190.197 46.131 C 189.348 45.479,189.348 45.573,190.208 44.637 C 190.822 43.969,191.106 43.809,192.333 43.440 C 193.112 43.206,193.900 42.901,194.083 42.763 C 194.502 42.446,194.321 42.439,196.339 42.851 M291.231 42.921 C 292.530 43.162,292.766 43.260,293.148 43.723 C 293.387 44.013,293.863 44.504,294.204 44.815 C 294.942 45.487,294.924 45.532,293.659 46.170 L 292.676 46.667 289.035 46.667 L 285.393 46.667 284.698 46.071 L 284.002 45.476 284.703 44.663 C 285.272 44.002,285.560 43.813,286.243 43.652 C 286.705 43.544,287.533 43.245,288.083 42.988 C 288.633 42.731,289.233 42.550,289.417 42.584 C 289.600 42.618,290.417 42.770,291.231 42.921 M380.890 43.152 C 381.398 43.420,382.236 43.733,382.752 43.848 C 383.994 44.126,384.676 44.892,385.057 46.433 C 385.205 47.035,385.506 47.952,385.726 48.472 C 385.945 48.992,386.290 50.141,386.491 51.027 L 386.857 52.637 386.448 53.943 C 386.223 54.662,385.984 55.503,385.918 55.812 C 385.852 56.121,385.656 56.615,385.483 56.908 C 385.310 57.202,385.017 58.033,384.832 58.756 C 384.460 60.209,383.884 61.000,383.198 61.000 C 382.974 61.000,382.126 61.156,381.312 61.347 C 379.434 61.788,376.705 61.724,374.250 61.180 C 372.266 60.741,371.922 60.479,371.658 59.210 C 371.554 58.709,371.211 57.803,370.895 57.197 C 370.580 56.592,370.203 55.576,370.058 54.939 C 369.913 54.303,369.699 53.550,369.583 53.266 C 369.351 52.702,369.877 49.299,370.271 48.815 C 370.659 48.338,371.134 47.219,371.338 46.303 C 371.623 45.017,372.523 44.135,373.833 43.856 C 374.337 43.749,375.125 43.441,375.583 43.172 C 376.835 42.438,379.513 42.428,380.890 43.152 M205.727 63.994 C 205.442 64.476,204.151 64.471,203.568 63.987 C 203.175 63.661,203.292 63.562,204.375 63.298 C 205.707 62.974,206.184 63.220,205.727 63.994 M300.264 64.038 C 299.957 64.506,298.530 64.435,298.021 63.926 C 297.702 63.607,297.718 63.596,298.917 63.297 C 300.187 62.980,300.753 63.292,300.264 64.038 " stroke="none" fill="#5fc6f0" fill-rule="evenodd"></path></g></svg>