<svg version="1.1" id="Layer_1" xmlns="http://www.w3.org/2000/svg" xmlns:xlink="http://www.w3.org/1999/xlink" x="0px" y="0px"
	 width="100%" viewBox="0 0 473 423" enable-background="new 0 0 473 423" xml:space="preserve">
<path fill="#FFFFFF" opacity="1.000000" stroke="none" 
	d="
M290.000000,424.000000 
	C193.360153,424.000000 97.220299,424.000000 1.040221,424.000000 
	C1.040221,283.066132 1.040221,142.132263 1.040221,1.099194 
	C158.556519,1.099194 316.113129,1.099194 473.834869,1.099194 
	C473.834869,141.999847 473.834869,282.999908 473.834869,424.000000 
	C412.798920,424.000000 351.649445,424.000000 290.000000,424.000000 
M208.499786,418.592346 
	C280.313446,418.592316 352.127167,418.632294 423.940674,418.522491 
	C430.235779,418.512878 436.652557,418.125946 442.801056,416.874207 
	C462.843018,412.793976 473.868042,396.856659 469.737610,377.241028 
	C468.261932,370.233063 465.185333,363.292267 461.587646,357.041260 
	C398.814240,247.972595 335.854767,139.010941 272.884125,30.055874 
	C270.645081,26.181793 268.146729,22.391169 265.308136,18.940998 
	C249.031448,-0.842532 225.651901,-0.710827 209.555115,19.249300 
	C206.749771,22.727928 204.281097,26.530293 202.041748,30.405516 
	C139.163193,139.218033 76.318481,248.050125 13.550081,356.926239 
	C10.828114,361.647675 8.381534,366.649811 6.662644,371.806519 
	C-0.642679,393.722626 10.449244,412.668915 33.167351,417.024384 
	C39.011272,418.144806 45.077473,418.514679 51.043072,418.527496 
	C103.195114,418.639557 155.347488,418.592285 208.499786,418.592346 
z"/>
<path fill="#1B1C1D" opacity="1.000000" stroke="none" 
	d="
M207.999786,418.592316 
	C155.347488,418.592285 103.195114,418.639557 51.043072,418.527496 
	C45.077473,418.514679 39.011272,418.144806 33.167351,417.024384 
	C10.449244,412.668915 -0.642679,393.722626 6.662644,371.806519 
	C8.381534,366.649811 10.828114,361.647675 13.550081,356.926239 
	C76.318481,248.050125 139.163193,139.218033 202.041748,30.405516 
	C204.281097,26.530293 206.749771,22.727928 209.555115,19.249300 
	C225.651901,-0.710827 249.031448,-0.842532 265.308136,18.940998 
	C268.146729,22.391169 270.645081,26.181793 272.884125,30.055874 
	C335.854767,139.010941 398.814240,247.972595 461.587646,357.041260 
	C465.185333,363.292267 468.261932,370.233063 469.737610,377.241028 
	C473.868042,396.856659 462.843018,412.793976 442.801056,416.874207 
	C436.652557,418.125946 430.235779,418.512878 423.940674,418.522491 
	C352.127167,418.632294 280.313446,418.592316 207.999786,418.592316 
M277.499939,409.667664 
	C326.162506,409.667664 374.825104,409.684845 423.487610,409.638031 
	C427.811859,409.633881 432.155365,409.401886 436.456360,408.953552 
	C457.090607,406.802612 466.456451,391.693542 459.127686,372.322784 
	C457.781464,368.764435 456.053162,365.309204 454.149658,362.009186 
	C391.203949,252.885391 328.249878,143.766388 265.132751,34.741772 
	C261.927704,29.205587 257.847900,23.879568 253.157349,19.561592 
	C243.530685,10.699638 231.210831,10.844035 221.645462,19.803652 
	C217.222000,23.946976 213.314209,28.958191 210.272583,34.212666 
	C147.075760,143.386368 84.018921,252.641159 21.031322,361.935760 
	C18.398306,366.504517 16.128210,371.448669 14.678171,376.501770 
	C10.329705,391.655396 17.376719,404.005554 32.698437,407.709045 
	C38.774075,409.177582 45.231789,409.578644 51.516968,409.588867 
	C126.511139,409.710846 201.505569,409.667511 277.499939,409.667664 
z"/>
<path fill="#FCCD00" opacity="1.000000" stroke="none" 
	d="
M276.999939,409.667542 
	C201.505569,409.667511 126.511139,409.710846 51.516968,409.588867 
	C45.231789,409.578644 38.774075,409.177582 32.698437,407.709045 
	C17.376719,404.005554 10.329705,391.655396 14.678171,376.501770 
	C16.128210,371.448669 18.398306,366.504517 21.031322,361.935760 
	C84.018921,252.641159 147.075760,143.386368 210.272583,34.212666 
	C213.314209,28.958191 217.222000,23.946976 221.645462,19.803652 
	C231.210831,10.844035 243.530685,10.699638 253.157349,19.561592 
	C257.847900,23.879568 261.927704,29.205587 265.132751,34.741772 
	C328.249878,143.766388 391.203949,252.885391 454.149658,362.009186 
	C456.053162,365.309204 457.781464,368.764435 459.127686,372.322784 
	C466.456451,391.693542 457.090607,406.802612 436.456360,408.953552 
	C432.155365,409.401886 427.811859,409.633881 423.487610,409.638031 
	C374.825104,409.684845 326.162506,409.667664 276.999939,409.667542 
M211.226196,321.038666 
	C204.557373,322.817474 197.888550,324.596313 191.219727,326.375122 
	C191.342728,326.886383 191.465729,327.397644 191.588730,327.908905 
	C198.414398,326.072479 205.240067,324.236084 212.830750,322.279205 
	C215.907211,320.707031 219.213760,319.462646 222.014038,317.496979 
	C228.601578,312.872955 234.947372,307.904602 241.755676,302.802277 
	C242.922958,312.251862 242.922958,312.251892 251.777573,312.252014 
	C253.610672,312.252014 255.443787,312.251984 257.276886,312.251984 
	C264.304077,312.251984 271.331268,312.251984 279.649384,312.251984 
	C271.968262,304.330627 273.602478,291.883484 261.725861,288.224304 
	C263.743805,286.547485 264.955231,285.452118 266.255005,284.474182 
	C283.820312,271.258545 301.321136,257.954926 319.023376,244.925018 
	C323.793213,241.414124 326.273865,237.047760 327.282440,230.593796 
	C325.326935,231.939270 323.991394,232.818924 322.696594,233.754837 
	C291.116180,256.581421 259.548828,279.426056 227.955444,302.234619 
	C222.081177,306.475525 221.075165,306.253082 216.481445,300.753998 
	C211.248123,294.489258 205.947739,288.280548 200.676514,282.047485 
	C200.572861,284.444672 201.442368,286.171509 202.329239,287.889374 
	C206.525879,296.018036 210.799850,304.107941 214.894241,312.287750 
	C216.755157,316.005493 216.869446,319.440613 211.226196,321.038666 
M208.882141,223.383652 
	C243.961884,202.079865 279.041656,180.776062 314.461548,159.265717 
	C310.740265,155.297394 306.639252,156.589371 302.935699,157.276047 
	C293.288483,159.064789 283.600769,160.815048 274.135529,163.350876 
	C265.851685,165.570175 257.145142,167.620163 249.838745,171.843948 
	C211.089050,194.245010 172.718262,217.301712 134.225861,240.147537 
	C126.906906,244.491440 119.631470,248.908646 112.335960,253.292038 
	C113.496452,253.945297 114.324043,253.942917 115.104439,253.749786 
	C127.366722,250.715210 139.739288,248.049271 151.840591,244.467697 
	C160.252853,241.977982 166.666077,243.837616 172.451752,250.113251 
	C187.793732,266.754517 203.339111,283.208618 218.635681,299.891113 
	C221.051865,302.526215 222.676514,303.754181 225.864105,301.008972 
	C229.128387,298.197693 232.917297,296.002106 236.427063,293.468384 
	C270.318298,269.002258 304.184937,244.501984 338.111115,220.084412 
	C340.688110,218.229706 341.592834,216.391113 340.227783,213.373718 
	C333.856873,199.291183 327.588196,185.162445 321.235779,171.071487 
	C320.924347,170.380722 320.168793,169.890213 319.479187,169.156662 
	C316.525116,170.989105 313.691895,172.728241 310.876465,174.495728 
	C272.255280,198.741882 233.651367,223.015656 195.006683,247.224335 
	C185.379410,253.255264 183.563187,252.913834 175.038574,244.046280 
	C186.192108,237.254608 197.236679,230.529297 208.882141,223.383652 
M317.500000,327.000793 
	C310.171997,327.001038 302.839966,327.144531 295.517700,326.939484 
	C291.990814,326.840698 290.845520,328.130280 290.919922,331.583771 
	C291.099152,339.907196 291.152924,348.242462 290.898285,356.561951 
	C290.784180,360.290680 291.928253,361.429932 295.681671,361.389618 
	C312.500854,361.208862 329.324066,361.216766 346.143433,361.389008 
	C349.692871,361.425354 350.842743,360.216125 350.788605,356.821320 
	C350.653137,348.329529 350.608368,339.831665 350.787323,331.341736 
	C350.864349,327.687134 349.293365,326.877136 345.978912,326.940521 
	C336.822235,327.115631 327.660034,327.000916 317.500000,327.000793 
M130.677887,312.803223 
	C132.800720,314.920166 134.814178,317.162323 137.067200,319.130219 
	C143.385925,324.649231 146.713287,324.366302 152.663223,317.887360 
	C151.940826,316.657043 151.233246,315.347992 150.430283,314.100311 
	C141.603867,300.385498 132.755600,286.684753 123.937180,272.964844 
	C123.132195,271.712402 122.334618,270.414276 121.805344,269.033203 
	C120.117599,264.629242 121.138306,262.501373 125.680763,261.155212 
	C130.781143,259.643677 135.925064,258.275848 141.065399,256.902985 
	C149.823776,254.563858 158.594162,252.269669 167.703079,249.865921 
	C165.032852,245.417191 161.342285,245.046646 157.713959,245.941696 
	C141.111252,250.037186 124.448921,253.968842 108.053253,258.792877 
	C99.874329,261.199310 99.763969,262.654572 103.243172,270.428925 
	C110.095703,285.741028 119.474014,299.449585 130.677887,312.803223 
M263.889282,347.495850 
	C263.889282,352.106689 263.889282,356.717499 263.889282,361.761047 
	C271.594269,361.761047 278.726685,361.908966 285.839539,361.602356 
	C286.912659,361.556091 288.749420,359.413239 288.782318,358.200867 
	C289.030792,349.044464 289.047485,339.874176 288.765289,330.719666 
	C288.726013,329.446259 286.679688,327.183990 285.522614,327.158020 
	C273.699707,326.893005 261.866821,326.907745 250.042496,327.139252 
	C248.916122,327.161316 246.900436,329.156555 246.869705,330.278778 
	C246.614594,339.601471 246.598648,348.938385 246.892609,358.258942 
	C246.930603,359.463226 248.980621,361.284790 250.392151,361.634033 
	C254.221008,362.581360 256.020172,361.118958 255.845383,356.680664 
	C255.494110,347.760040 255.740891,338.815887 255.740891,329.887268 
	C258.769592,329.887268 261.044647,329.887268 263.889984,329.887268 
	C263.889984,335.595062 263.889984,341.046509 263.889282,347.495850 
M162.219925,315.312500 
	C165.769455,317.092682 169.167892,319.321808 172.894501,320.575775 
	C189.596802,326.195953 202.736496,316.063782 200.520630,299.486633 
	C198.096619,281.352570 180.413971,263.550568 162.246552,260.954285 
	C147.947464,258.910828 137.957611,269.333984 140.561386,283.530426 
	C143.041031,297.049988 150.550049,307.172668 162.219925,315.312500 
M252.514053,314.925781 
	C248.725494,314.925781 244.936920,314.925781 240.934204,314.925781 
	C240.934204,318.179962 240.934204,320.896667 240.934204,323.811096 
	C245.183380,323.811096 249.088715,323.811096 253.050354,323.811096 
	C253.243225,321.410370 253.411606,319.314697 253.582031,317.193420 
	C256.237335,317.193420 258.519501,317.193420 261.063538,317.193420 
	C261.195099,319.471405 261.314911,321.546326 261.447601,323.844177 
	C272.658173,323.844177 283.555115,323.844177 294.666626,323.844177 
	C294.666626,320.841919 294.666626,318.121033 294.666626,314.925781 
	C280.747314,314.925781 267.128082,314.925781 252.514053,314.925781 
M272.004913,292.619568 
	C273.606903,296.442627 274.921326,300.423645 276.905914,304.036560 
	C278.376251,306.713318 280.345306,309.414917 282.760529,311.202423 
	C286.203735,313.750763 289.389954,312.705750 290.955353,309.363220 
	C282.720428,308.279297 278.309631,303.633148 278.601135,294.908234 
	C278.732056,290.989716 279.817627,286.261475 282.270264,283.498932 
	C284.720612,280.738922 289.419983,279.975677 293.942291,277.980133 
	C294.599670,274.926270 295.522125,270.640930 296.444580,266.355560 
	C296.026550,266.084229 295.608490,265.812897 295.190460,265.541565 
	C285.531342,272.783813 275.872253,280.026031 265.926178,287.483459 
	C268.295380,289.338409 269.967773,290.647797 272.004913,292.619568 
M296.433838,303.023712 
	C297.638702,299.551270 299.551788,296.142090 299.869080,292.590332 
	C300.265228,288.155304 296.437653,283.861267 293.002716,283.436432 
	C289.456482,282.997894 285.637146,286.220062 284.677399,291.132996 
	C284.190826,293.623840 284.252289,296.437744 284.893158,298.889374 
	C286.380432,304.579193 290.397461,306.125031 296.433838,303.023712 
M278.032532,364.047852 
	C270.110809,364.047852 262.189117,364.047852 254.283051,364.047852 
	C254.164322,371.048096 259.022003,376.278778 265.758148,376.869110 
	C273.560760,377.552948 280.447998,373.243927 281.249664,366.897766 
	C281.355469,366.060120 279.731262,365.003937 278.032532,364.047852 
M127.364426,270.878571 
	C128.070801,271.777130 128.603241,273.122559 129.520416,273.479553 
	C131.328033,274.183075 133.349030,274.338409 135.281769,274.720520 
	C135.434067,273.512390 136.164566,271.753754 135.633636,271.196075 
	C133.811859,269.282532 131.548050,267.789825 129.452744,266.136688 
	C128.661606,267.474091 127.870453,268.811523 127.364426,270.878571 
M163.496262,320.713348 
	C159.647873,321.560669 160.559036,324.118225 162.333878,325.693085 
	C163.727356,326.929535 166.196701,326.953491 168.188110,327.516083 
	C167.781601,325.675232 167.572174,323.753693 166.868088,322.034729 
	C166.599960,321.380096 165.196350,321.190552 163.496262,320.713348 
M207.171234,309.160187 
	C206.058441,310.024719 203.884323,311.443024 204.000748,311.666138 
	C204.931885,313.450623 206.143295,315.174988 207.620148,316.536743 
	C208.070587,316.952057 210.535370,316.085876 210.523041,315.964447 
	C210.340271,314.164215 209.989136,312.361755 209.454712,310.628601 
	C209.299088,310.123962 208.443039,309.835266 207.171234,309.160187 
M169.410416,334.069580 
	C173.673996,332.919769 177.937576,331.769958 182.201157,330.620178 
	C182.034210,330.051544 181.867264,329.482910 181.700317,328.914276 
	C176.295883,330.376434 170.891449,331.838623 165.487000,333.300781 
	C165.530655,333.528595 165.574326,333.756439 165.617981,333.984253 
	C166.604797,334.034729 167.591629,334.085205 169.410416,334.069580 
M174.873322,259.636597 
	C176.704926,260.956512 178.536514,262.276459 180.368118,263.596375 
	C180.669144,263.134064 180.970154,262.671753 181.271179,262.209442 
	C179.146439,259.830322 177.021698,257.451202 174.896942,255.072083 
	C174.604019,255.276810 174.311096,255.481522 174.018158,255.686234 
	C174.203476,256.782990 174.388794,257.879730 174.873322,259.636597 
z"/>
<path fill="#151618" opacity="1.000000" stroke="none" 
	d="
M208.581696,223.593811 
	C197.236679,230.529297 186.192108,237.254608 175.038574,244.046280 
	C183.563187,252.913834 185.379410,253.255264 195.006683,247.224335 
	C233.651367,223.015656 272.255280,198.741882 310.876465,174.495728 
	C313.691895,172.728241 316.525116,170.989105 319.479187,169.156662 
	C320.168793,169.890213 320.924347,170.380722 321.235779,171.071487 
	C327.588196,185.162445 333.856873,199.291183 340.227783,213.373718 
	C341.592834,216.391113 340.688110,218.229706 338.111115,220.084412 
	C304.184937,244.501984 270.318298,269.002258 236.427063,293.468384 
	C232.917297,296.002106 229.128387,298.197693 225.864105,301.008972 
	C222.676514,303.754181 221.051865,302.526215 218.635681,299.891113 
	C203.339111,283.208618 187.793732,266.754517 172.451752,250.113251 
	C166.666077,243.837616 160.252853,241.977982 151.840591,244.467697 
	C139.739288,248.049271 127.366722,250.715210 115.104439,253.749786 
	C114.324043,253.942917 113.496452,253.945297 112.335960,253.292038 
	C119.631470,248.908646 126.906906,244.491440 134.225861,240.147537 
	C172.718262,217.301712 211.089050,194.245010 249.838745,171.843948 
	C257.145142,167.620163 265.851685,165.570175 274.135529,163.350876 
	C283.600769,160.815048 293.288483,159.064789 302.935699,157.276047 
	C306.639252,156.589371 310.740265,155.297394 314.461548,159.265717 
	C279.041656,180.776062 243.961884,202.079865 208.581696,223.593811 
z"/>
<path fill="#141518" opacity="1.000000" stroke="none" 
	d="
M318.000000,327.000793 
	C327.660034,327.000916 336.822235,327.115631 345.978912,326.940521 
	C349.293365,326.877136 350.864349,327.687134 350.787323,331.341736 
	C350.608368,339.831665 350.653137,348.329529 350.788605,356.821320 
	C350.842743,360.216125 349.692871,361.425354 346.143433,361.389008 
	C329.324066,361.216766 312.500854,361.208862 295.681671,361.389618 
	C291.928253,361.429932 290.784180,360.290680 290.898285,356.561951 
	C291.152924,348.242462 291.099152,339.907196 290.919922,331.583771 
	C290.845520,328.130280 291.990814,326.840698 295.517700,326.939484 
	C302.839966,327.144531 310.171997,327.001038 318.000000,327.000793 
z"/>
<path fill="#191817" opacity="1.000000" stroke="none" 
	d="
M212.018463,321.109131 
	C216.869446,319.440613 216.755157,316.005493 214.894241,312.287750 
	C210.799850,304.107941 206.525879,296.018036 202.329239,287.889374 
	C201.442368,286.171509 200.572861,284.444672 200.676514,282.047485 
	C205.947739,288.280548 211.248123,294.489258 216.481445,300.753998 
	C221.075165,306.253082 222.081177,306.475525 227.955444,302.234619 
	C259.548828,279.426056 291.116180,256.581421 322.696594,233.754837 
	C323.991394,232.818924 325.326935,231.939270 327.282440,230.593796 
	C326.273865,237.047760 323.793213,241.414124 319.023376,244.925018 
	C301.321136,257.954926 283.820312,271.258545 266.255005,284.474182 
	C264.955231,285.452118 263.743805,286.547485 261.725861,288.224304 
	C273.602478,291.883484 271.968262,304.330627 279.649384,312.251984 
	C271.331268,312.251984 264.304077,312.251984 257.276886,312.251984 
	C255.443787,312.251984 253.610672,312.252014 251.777573,312.252014 
	C242.922958,312.251892 242.922958,312.251862 241.755676,302.802277 
	C234.947372,307.904602 228.601578,312.872955 222.014038,317.496979 
	C219.213760,319.462646 215.907211,320.707031 212.438934,322.016541 
	C212.037567,321.538971 212.028015,321.324066 212.018463,321.109131 
z"/>
<path fill="#181817" opacity="1.000000" stroke="none" 
	d="
M130.443024,312.537994 
	C119.474014,299.449585 110.095703,285.741028 103.243172,270.428925 
	C99.763969,262.654572 99.874329,261.199310 108.053253,258.792877 
	C124.448921,253.968842 141.111252,250.037186 157.713959,245.941696 
	C161.342285,245.046646 165.032852,245.417191 167.703079,249.865921 
	C158.594162,252.269669 149.823776,254.563858 141.065399,256.902985 
	C135.925064,258.275848 130.781143,259.643677 125.680763,261.155212 
	C121.138306,262.501373 120.117599,264.629242 121.805344,269.033203 
	C122.334618,270.414276 123.132195,271.712402 123.937180,272.964844 
	C132.755600,286.684753 141.603867,300.385498 150.430283,314.100311 
	C151.233246,315.347992 151.940826,316.657043 152.663223,317.887360 
	C146.713287,324.366302 143.385925,324.649231 137.067200,319.130219 
	C134.814178,317.162323 132.800720,314.920166 130.443024,312.537994 
z"/>
<path fill="#191917" opacity="1.000000" stroke="none" 
	d="
M263.889648,346.996887 
	C263.889984,341.046509 263.889984,335.595062 263.889984,329.887268 
	C261.044647,329.887268 258.769592,329.887268 255.740891,329.887268 
	C255.740891,338.815887 255.494110,347.760040 255.845383,356.680664 
	C256.020172,361.118958 254.221008,362.581360 250.392151,361.634033 
	C248.980621,361.284790 246.930603,359.463226 246.892609,358.258942 
	C246.598648,348.938385 246.614594,339.601471 246.869705,330.278778 
	C246.900436,329.156555 248.916122,327.161316 250.042496,327.139252 
	C261.866821,326.907745 273.699707,326.893005 285.522614,327.158020 
	C286.679688,327.183990 288.726013,329.446259 288.765289,330.719666 
	C289.047485,339.874176 289.030792,349.044464 288.782318,358.200867 
	C288.749420,359.413239 286.912659,361.556091 285.839539,361.602356 
	C278.726685,361.908966 271.594269,361.761047 263.889282,361.761047 
	C263.889282,356.717499 263.889282,352.106689 263.889648,346.996887 
z"/>
<path fill="#232116" opacity="1.000000" stroke="none" 
	d="
M161.913208,315.121582 
	C150.550049,307.172668 143.041031,297.049988 140.561386,283.530426 
	C137.957611,269.333984 147.947464,258.910828 162.246552,260.954285 
	C180.413971,263.550568 198.096619,281.352570 200.520630,299.486633 
	C202.736496,316.063782 189.596802,326.195953 172.894501,320.575775 
	C169.167892,319.321808 165.769455,317.092682 161.913208,315.121582 
M191.139114,285.413269 
	C190.365250,283.994720 189.826569,282.366394 188.778961,281.192047 
	C182.492264,274.144928 175.393433,268.488159 165.808701,266.256104 
	C154.245483,263.563263 143.271576,270.860657 145.176239,284.030334 
	C147.514267,300.196533 157.189743,311.016632 172.234482,316.530518 
	C183.927399,320.816010 194.788940,316.554108 196.355835,304.146698 
	C197.182190,297.603271 195.047409,291.545319 191.139114,285.413269 
z"/>
<path fill="#151518" opacity="1.000000" stroke="none" 
	d="
M253.011444,314.925781 
	C267.128082,314.925781 280.747314,314.925781 294.666626,314.925781 
	C294.666626,318.121033 294.666626,320.841919 294.666626,323.844177 
	C283.555115,323.844177 272.658173,323.844177 261.447601,323.844177 
	C261.314911,321.546326 261.195099,319.471405 261.063538,317.193420 
	C258.519501,317.193420 256.237335,317.193420 253.582031,317.193420 
	C253.411606,319.314697 253.243225,321.410370 253.050354,323.811096 
	C249.088715,323.811096 245.183380,323.811096 240.934204,323.811096 
	C240.934204,320.896667 240.934204,318.179962 240.934204,314.925781 
	C244.936920,314.925781 248.725494,314.925781 253.011444,314.925781 
z"/>
<path fill="#1E1C17" opacity="1.000000" stroke="none" 
	d="
M271.822510,292.288391 
	C269.967773,290.647797 268.295380,289.338409 265.926178,287.483459 
	C275.872253,280.026031 285.531342,272.783813 295.190460,265.541565 
	C295.608490,265.812897 296.026550,266.084229 296.444580,266.355560 
	C295.522125,270.640930 294.599670,274.926270 293.942291,277.980133 
	C289.419983,279.975677 284.720612,280.738922 282.270264,283.498932 
	C279.817627,286.261475 278.732056,290.989716 278.601135,294.908234 
	C278.309631,303.633148 282.720428,308.279297 290.955353,309.363220 
	C289.389954,312.705750 286.203735,313.750763 282.760529,311.202423 
	C280.345306,309.414917 278.376251,306.713318 276.905914,304.036560 
	C274.921326,300.423645 273.606903,296.442627 271.822510,292.288391 
z"/>
<path fill="#1A1917" opacity="1.000000" stroke="none" 
	d="
M296.156677,303.292480 
	C290.397461,306.125031 286.380432,304.579193 284.893158,298.889374 
	C284.252289,296.437744 284.190826,293.623840 284.677399,291.132996 
	C285.637146,286.220062 289.456482,282.997894 293.002716,283.436432 
	C296.437653,283.861267 300.265228,288.155304 299.869080,292.590332 
	C299.551788,296.142090 297.638702,299.551270 296.156677,303.292480 
z"/>
<path fill="#201E17" opacity="1.000000" stroke="none" 
	d="
M278.470398,364.048401 
	C279.731262,365.003937 281.355469,366.060120 281.249664,366.897766 
	C280.447998,373.243927 273.560760,377.552948 265.758148,376.869110 
	C259.022003,376.278778 254.164322,371.048096 254.283051,364.047852 
	C262.189117,364.047852 270.110809,364.047852 278.470398,364.048401 
M258.248383,367.284546 
	C259.550415,368.614349 260.667725,370.583710 262.224030,371.033203 
	C263.152252,371.301331 264.769501,369.183990 266.076996,368.138977 
	C265.839966,367.706482 265.602905,367.273956 265.365875,366.841431 
	C263.232513,366.841431 261.099152,366.841431 258.248383,367.284546 
z"/>
<path fill="#211F17" opacity="1.000000" stroke="none" 
	d="
M127.221863,270.513763 
	C127.870453,268.811523 128.661606,267.474091 129.452759,266.136688 
	C131.548050,267.789825 133.811859,269.282532 135.633636,271.196075 
	C136.164566,271.753754 135.434067,273.512390 135.281769,274.720520 
	C133.349030,274.338409 131.328033,274.183075 129.520416,273.479553 
	C128.603241,273.122559 128.070801,271.777130 127.221863,270.513763 
z"/>
<path fill="#1E1D17" opacity="1.000000" stroke="none" 
	d="
M163.903259,320.751190 
	C165.196350,321.190552 166.599960,321.380096 166.868088,322.034729 
	C167.572174,323.753693 167.781601,325.675232 168.188110,327.516083 
	C166.196701,326.953491 163.727356,326.929535 162.333878,325.693085 
	C160.559036,324.118225 159.647873,321.560669 163.903259,320.751190 
z"/>
<path fill="#352F15" opacity="1.000000" stroke="none" 
	d="
M211.622330,321.073914 
	C212.028015,321.324066 212.037567,321.538971 212.056427,322.076782 
	C205.240067,324.236084 198.414398,326.072479 191.588730,327.908905 
	C191.465729,327.397644 191.342728,326.886383 191.219727,326.375122 
	C197.888550,324.596313 204.557373,322.817474 211.622330,321.073914 
z"/>
<path fill="#1B1B17" opacity="1.000000" stroke="none" 
	d="
M207.539642,309.303894 
	C208.443039,309.835266 209.299088,310.123962 209.454712,310.628601 
	C209.989136,312.361755 210.340271,314.164215 210.523041,315.964447 
	C210.535370,316.085876 208.070587,316.952057 207.620148,316.536743 
	C206.143295,315.174988 204.931885,313.450623 204.000748,311.666138 
	C203.884323,311.443024 206.058441,310.024719 207.539642,309.303894 
z"/>
<path fill="#393214" opacity="1.000000" stroke="none" 
	d="
M168.994431,334.102631 
	C167.591629,334.085205 166.604797,334.034729 165.617981,333.984253 
	C165.574326,333.756439 165.530655,333.528595 165.487000,333.300781 
	C170.891449,331.838623 176.295883,330.376434 181.700317,328.914276 
	C181.867264,329.482910 182.034210,330.051544 182.201157,330.620178 
	C177.937576,331.769958 173.673996,332.919769 168.994431,334.102631 
z"/>
<path fill="#292516" opacity="1.000000" stroke="none" 
	d="
M174.723724,259.306519 
	C174.388794,257.879730 174.203476,256.782990 174.018158,255.686234 
	C174.311096,255.481522 174.604019,255.276810 174.896942,255.072083 
	C177.021698,257.451202 179.146439,259.830322 181.271179,262.209442 
	C180.970154,262.671753 180.669144,263.134064 180.368118,263.596375 
	C178.536514,262.276459 176.704926,260.956512 174.723724,259.306519 
z"/>
<path fill="#F2C501" opacity="1.000000" stroke="none" 
	d="
M191.421295,285.670593 
	C195.047409,291.545319 197.182190,297.603271 196.355835,304.146698 
	C194.788940,316.554108 183.927399,320.816010 172.234482,316.530518 
	C157.189743,311.016632 147.514267,300.196533 145.176239,284.030334 
	C143.271576,270.860657 154.245483,263.563263 165.808701,266.256104 
	C175.393433,268.488159 182.492264,274.144928 188.778961,281.192047 
	C189.826569,282.366394 190.365250,283.994720 191.421295,285.670593 
M182.018463,280.975525 
	C182.018463,280.975525 182.039978,281.002594 182.076340,280.289001 
	C176.830170,274.091614 170.141205,270.754211 162.029953,270.824585 
	C154.582062,270.889191 150.127045,275.957703 149.933884,283.532745 
	C149.595413,296.805206 162.831955,311.317871 175.715317,313.179169 
	C187.197754,314.838043 194.149673,307.170441 191.562912,295.856445 
	C191.161102,294.099091 190.876755,292.131683 189.879501,290.729919 
	C187.456451,287.323975 184.645813,284.193756 182.018463,280.975525 
z"/>
<path fill="#F3C501" opacity="1.000000" stroke="none" 
	d="
M258.607086,367.062988 
	C261.099152,366.841431 263.232513,366.841431 265.365875,366.841431 
	C265.602905,367.273956 265.839966,367.706482 266.076996,368.138977 
	C264.769501,369.183990 263.152252,371.301331 262.224030,371.033203 
	C260.667725,370.583710 259.550415,368.614349 258.607086,367.062988 
z"/>
<path fill="#272416" opacity="1.000000" stroke="none" 
	d="
M181.991333,280.952423 
	C184.645813,284.193756 187.456451,287.323975 189.879501,290.729919 
	C190.876755,292.131683 191.161102,294.099091 191.562912,295.856445 
	C194.149673,307.170441 187.197754,314.838043 175.715317,313.179169 
	C162.831955,311.317871 149.595413,296.805206 149.933884,283.532745 
	C150.127045,275.957703 154.582062,270.889191 162.029953,270.824585 
	C170.141205,270.754211 176.830170,274.091614 181.782715,280.969849 
	C177.966629,279.551392 174.625381,277.006226 170.869995,275.480225 
	C167.228439,274.000488 163.093277,272.449219 159.179428,276.121399 
	C157.598007,277.625824 156.323868,279.058105 154.648376,280.612152 
	C154.170105,284.229706 154.034973,287.727051 154.126602,291.218445 
	C154.133942,291.497803 155.705551,291.736115 156.736725,292.263092 
	C158.620819,295.169128 160.318405,297.805573 161.535721,300.658936 
	C161.613419,301.959167 162.171371,303.042511 162.889771,304.391174 
	C163.558716,304.651581 164.067184,304.646637 164.925293,304.631165 
	C165.367416,304.406647 165.459915,304.192596 165.815170,304.137756 
	C168.055328,305.346954 170.032761,306.396912 171.563721,307.733826 
	C173.586578,311.542328 176.937698,311.257111 180.419235,310.061371 
	C180.556412,310.014221 180.250641,308.677338 180.492340,307.905579 
	C182.372467,307.581055 183.911514,307.292389 185.845032,306.932800 
	C188.983215,303.394623 190.331299,299.717133 187.880585,295.325806 
	C187.767410,294.928802 187.837982,294.721893 188.072632,294.091888 
	C187.404495,292.930389 186.682053,292.229431 185.788116,291.469513 
	C185.403763,291.124329 185.190918,290.838074 185.477310,290.183533 
	C184.964798,289.040344 183.953049,288.265442 182.971710,287.494995 
	C183.002121,287.499481 182.977966,287.556030 183.470184,287.326050 
	C183.305359,285.048157 182.648346,283.000305 181.991333,280.952423 
z"/>
<path fill="#171718" opacity="1.000000" stroke="none" 
	d="
M155.049713,280.490417 
	C156.323868,279.058105 157.598007,277.625824 159.176254,276.528778 
	C164.814850,276.904938 170.398178,275.881683 174.801270,280.339203 
	C174.481125,280.625916 174.276932,280.972168 174.050964,280.987030 
	C169.699631,281.272705 168.170883,283.684479 169.175354,287.721344 
	C170.048798,291.231720 174.221649,294.099274 176.575989,292.713043 
	C180.471100,290.419678 179.189789,287.176666 177.616791,284.048920 
	C177.542191,283.900543 177.463226,283.754364 177.611679,283.388184 
	C177.981216,283.017181 178.125381,282.865143 178.572479,282.854980 
	C180.242935,284.516541 181.610443,286.036285 182.977966,287.556030 
	C182.977966,287.556030 183.002121,287.499481 183.091385,287.849976 
	C183.779785,288.984283 184.378922,289.768066 184.978058,290.551849 
	C185.190918,290.838074 185.403763,291.124329 185.647736,291.946228 
	C186.458694,293.172058 187.238510,293.862244 188.018326,294.552429 
	C187.837982,294.721893 187.767410,294.928802 187.396210,295.380310 
	C186.474060,299.392822 185.962311,303.198303 185.450577,307.003754 
	C183.911514,307.292389 182.372467,307.581055 180.112030,308.027466 
	C176.930511,307.939117 174.470337,307.693024 172.010193,307.446899 
	C170.032761,306.396912 168.055328,305.346954 165.553101,303.895386 
	C164.024200,302.476532 163.020096,301.459290 162.015991,300.442017 
	C160.318405,297.805573 158.620819,295.169128 156.568176,291.829590 
	C155.825333,287.581146 155.437531,284.035797 155.049713,280.490417 
z"/>
<path fill="#F5C701" opacity="1.000000" stroke="none" 
	d="
M183.470184,287.326050 
	C181.610443,286.036285 180.242935,284.516541 178.408112,282.587952 
	C177.382278,282.210571 176.823746,282.242065 176.265228,282.273560 
	C176.638916,282.718109 177.012604,283.162659 177.386292,283.607178 
	C177.463226,283.754364 177.542191,283.900543 177.616791,284.048920 
	C179.189789,287.176666 180.471100,290.419678 176.575989,292.713043 
	C174.221649,294.099274 170.048798,291.231720 169.175354,287.721344 
	C168.170883,283.684479 169.699631,281.272705 174.050964,280.987030 
	C174.276932,280.972168 174.481125,280.625916 174.801270,280.339203 
	C170.398178,275.881683 164.814850,276.904938 159.483521,276.456665 
	C163.093277,272.449219 167.228439,274.000488 170.869995,275.480225 
	C174.625381,277.006226 177.966629,279.551392 181.764526,281.326630 
	C182.039978,281.002594 182.018463,280.975525 182.004898,280.963989 
	C182.648346,283.000305 183.305359,285.048157 183.470184,287.326050 
z"/>
<path fill="#F5C701" opacity="1.000000" stroke="none" 
	d="
M154.648376,280.612152 
	C155.437531,284.035797 155.825333,287.581146 156.381683,291.559998 
	C155.705551,291.736115 154.133942,291.497803 154.126602,291.218445 
	C154.034973,287.727051 154.170105,284.229706 154.648376,280.612152 
z"/>
<path fill="#F5C701" opacity="1.000000" stroke="none" 
	d="
M171.563705,307.733826 
	C174.470337,307.693024 176.930511,307.939117 179.770966,308.063324 
	C180.250641,308.677338 180.556412,310.014221 180.419235,310.061371 
	C176.937698,311.257111 173.586578,311.542328 171.563705,307.733826 
z"/>
<path fill="#F5C701" opacity="1.000000" stroke="none" 
	d="
M185.845032,306.932800 
	C185.962311,303.198303 186.474060,299.392822 187.470169,295.532898 
	C190.331299,299.717133 188.983215,303.394623 185.845032,306.932800 
z"/>
<path fill="#F5C701" opacity="1.000000" stroke="none" 
	d="
M161.535736,300.658936 
	C163.020096,301.459290 164.024200,302.476532 165.290375,303.736176 
	C165.459915,304.192596 165.367416,304.406647 164.481720,304.431763 
	C163.368805,304.203827 163.049072,304.164825 162.729324,304.125824 
	C162.171371,303.042511 161.613419,301.959167 161.535736,300.658936 
z"/>
<path fill="#F5C701" opacity="1.000000" stroke="none" 
	d="
M188.072632,294.091888 
	C187.238510,293.862244 186.458694,293.172058 185.819244,292.005188 
	C186.682053,292.229431 187.404495,292.930389 188.072632,294.091888 
z"/>
<path fill="#E1B703" opacity="1.000000" stroke="none" 
	d="
M185.477310,290.183533 
	C184.378922,289.768066 183.779785,288.984283 183.060974,287.845520 
	C183.953049,288.265442 184.964798,289.040344 185.477310,290.183533 
z"/>
<path fill="#E1B703" opacity="1.000000" stroke="none" 
	d="
M162.889771,304.391174 
	C163.049072,304.164825 163.368805,304.203827 164.132111,304.442261 
	C164.067184,304.646637 163.558716,304.651581 162.889771,304.391174 
z"/>
<path fill="#171718" opacity="1.000000" stroke="none" 
	d="
M177.611679,283.388184 
	C177.012604,283.162659 176.638916,282.718109 176.265228,282.273560 
	C176.823746,282.242065 177.382278,282.210571 178.105164,282.446106 
	C178.125381,282.865143 177.981216,283.017181 177.611679,283.388184 
z"/>
</svg>